<mxfile host="app.diagrams.net" agent="Mozilla/5.0 (Windows NT 10.0; Win64; x64) AppleWebKit/537.36 (KHTML, like Gecko) Chrome/134.0.0.0 Safari/537.36 OPR/119.0.0.0" version="28.0.6" pages="9">
  <diagram name="Index (Home Page)" id="vWIYYTa_zRV3rl6NB89k">
    <mxGraphModel dx="1621" dy="753" grid="1" gridSize="10" guides="1" tooltips="1" connect="1" arrows="1" fold="1" page="1" pageScale="1" pageWidth="827" pageHeight="1169" math="0" shadow="0">
      <root>
        <mxCell id="0" />
        <mxCell id="1" parent="0" />
        <mxCell id="zYm0TpzJEBnJO07cxM4k-2" style="edgeStyle=orthogonalEdgeStyle;rounded=0;orthogonalLoop=1;jettySize=auto;html=1;" parent="1" source="zYm0TpzJEBnJO07cxM4k-1" edge="1">
          <mxGeometry relative="1" as="geometry">
            <mxPoint x="90" y="320" as="targetPoint" />
          </mxGeometry>
        </mxCell>
        <mxCell id="zYm0TpzJEBnJO07cxM4k-8" style="edgeStyle=orthogonalEdgeStyle;rounded=0;orthogonalLoop=1;jettySize=auto;html=1;entryX=0.5;entryY=0;entryDx=0;entryDy=0;" parent="1" source="zYm0TpzJEBnJO07cxM4k-1" target="zYm0TpzJEBnJO07cxM4k-4" edge="1">
          <mxGeometry relative="1" as="geometry" />
        </mxCell>
        <mxCell id="zYm0TpzJEBnJO07cxM4k-11" style="edgeStyle=orthogonalEdgeStyle;rounded=0;orthogonalLoop=1;jettySize=auto;html=1;entryX=0.5;entryY=0;entryDx=0;entryDy=0;" parent="1" source="zYm0TpzJEBnJO07cxM4k-1" target="zYm0TpzJEBnJO07cxM4k-10" edge="1">
          <mxGeometry relative="1" as="geometry" />
        </mxCell>
        <mxCell id="zYm0TpzJEBnJO07cxM4k-12" style="edgeStyle=orthogonalEdgeStyle;rounded=0;orthogonalLoop=1;jettySize=auto;html=1;entryX=0.5;entryY=0;entryDx=0;entryDy=0;" parent="1" source="zYm0TpzJEBnJO07cxM4k-1" target="zYm0TpzJEBnJO07cxM4k-13" edge="1">
          <mxGeometry relative="1" as="geometry">
            <mxPoint x="522.2857142857143" y="320" as="targetPoint" />
          </mxGeometry>
        </mxCell>
        <mxCell id="zYm0TpzJEBnJO07cxM4k-15" style="edgeStyle=orthogonalEdgeStyle;rounded=0;orthogonalLoop=1;jettySize=auto;html=1;entryX=0.5;entryY=0;entryDx=0;entryDy=0;" parent="1" source="zYm0TpzJEBnJO07cxM4k-1" target="zYm0TpzJEBnJO07cxM4k-14" edge="1">
          <mxGeometry relative="1" as="geometry" />
        </mxCell>
        <mxCell id="zYm0TpzJEBnJO07cxM4k-21" style="edgeStyle=orthogonalEdgeStyle;rounded=0;orthogonalLoop=1;jettySize=auto;html=1;entryX=0.5;entryY=0;entryDx=0;entryDy=0;" parent="1" source="zYm0TpzJEBnJO07cxM4k-1" target="zYm0TpzJEBnJO07cxM4k-17" edge="1">
          <mxGeometry relative="1" as="geometry">
            <mxPoint x="820" y="320" as="targetPoint" />
          </mxGeometry>
        </mxCell>
        <mxCell id="zYm0TpzJEBnJO07cxM4k-22" style="edgeStyle=orthogonalEdgeStyle;rounded=0;orthogonalLoop=1;jettySize=auto;html=1;" parent="1" source="zYm0TpzJEBnJO07cxM4k-1" target="zYm0TpzJEBnJO07cxM4k-16" edge="1">
          <mxGeometry relative="1" as="geometry" />
        </mxCell>
        <mxCell id="zYm0TpzJEBnJO07cxM4k-1" value="Barra de navegación" style="rounded=0;whiteSpace=wrap;html=1;" parent="1" vertex="1">
          <mxGeometry x="130" y="200" width="120" height="60" as="geometry" />
        </mxCell>
        <mxCell id="zYm0TpzJEBnJO07cxM4k-7" style="edgeStyle=orthogonalEdgeStyle;rounded=0;orthogonalLoop=1;jettySize=auto;html=1;entryX=0;entryY=0.5;entryDx=0;entryDy=0;" parent="1" source="zYm0TpzJEBnJO07cxM4k-3" target="zYm0TpzJEBnJO07cxM4k-5" edge="1">
          <mxGeometry relative="1" as="geometry">
            <Array as="points">
              <mxPoint x="70" y="60" />
            </Array>
          </mxGeometry>
        </mxCell>
        <mxCell id="zYm0TpzJEBnJO07cxM4k-3" value="El logo (regresa a home page)" style="rounded=1;whiteSpace=wrap;html=1;" parent="1" vertex="1">
          <mxGeometry x="30" y="320" width="120" height="60" as="geometry" />
        </mxCell>
        <mxCell id="zYm0TpzJEBnJO07cxM4k-4" value="Services (HLINK to other page)" style="rounded=1;whiteSpace=wrap;html=1;" parent="1" vertex="1">
          <mxGeometry x="170" y="320" width="120" height="60" as="geometry" />
        </mxCell>
        <mxCell id="zYm0TpzJEBnJO07cxM4k-6" style="edgeStyle=orthogonalEdgeStyle;rounded=0;orthogonalLoop=1;jettySize=auto;html=1;entryX=0.5;entryY=0;entryDx=0;entryDy=0;" parent="1" source="zYm0TpzJEBnJO07cxM4k-5" target="zYm0TpzJEBnJO07cxM4k-1" edge="1">
          <mxGeometry relative="1" as="geometry">
            <Array as="points">
              <mxPoint x="320" y="140" />
              <mxPoint x="190" y="140" />
            </Array>
          </mxGeometry>
        </mxCell>
        <mxCell id="KZaD1BsAd-85yGj1GfAQ-10" style="edgeStyle=orthogonalEdgeStyle;rounded=0;orthogonalLoop=1;jettySize=auto;html=1;entryX=0.5;entryY=0;entryDx=0;entryDy=0;" parent="1" source="zYm0TpzJEBnJO07cxM4k-5" target="KZaD1BsAd-85yGj1GfAQ-11" edge="1">
          <mxGeometry relative="1" as="geometry">
            <mxPoint x="324" y="750" as="targetPoint" />
            <Array as="points">
              <mxPoint x="20" y="50" />
              <mxPoint x="20" y="640" />
              <mxPoint x="330" y="640" />
            </Array>
          </mxGeometry>
        </mxCell>
        <mxCell id="zYm0TpzJEBnJO07cxM4k-5" value="Homepage" style="rounded=1;whiteSpace=wrap;html=1;" parent="1" vertex="1">
          <mxGeometry x="270" y="30" width="120" height="60" as="geometry" />
        </mxCell>
        <mxCell id="KZaD1BsAd-85yGj1GfAQ-3" style="edgeStyle=orthogonalEdgeStyle;rounded=0;orthogonalLoop=1;jettySize=auto;html=1;entryX=0;entryY=0.5;entryDx=0;entryDy=0;" parent="1" source="zYm0TpzJEBnJO07cxM4k-10" target="zYm0TpzJEBnJO07cxM4k-24" edge="1">
          <mxGeometry relative="1" as="geometry" />
        </mxCell>
        <mxCell id="KZaD1BsAd-85yGj1GfAQ-4" style="edgeStyle=orthogonalEdgeStyle;rounded=0;orthogonalLoop=1;jettySize=auto;html=1;entryX=0;entryY=0.5;entryDx=0;entryDy=0;" parent="1" source="zYm0TpzJEBnJO07cxM4k-10" target="zYm0TpzJEBnJO07cxM4k-26" edge="1">
          <mxGeometry relative="1" as="geometry" />
        </mxCell>
        <mxCell id="KZaD1BsAd-85yGj1GfAQ-5" style="edgeStyle=orthogonalEdgeStyle;rounded=0;orthogonalLoop=1;jettySize=auto;html=1;entryX=0;entryY=0.5;entryDx=0;entryDy=0;" parent="1" source="zYm0TpzJEBnJO07cxM4k-10" target="zYm0TpzJEBnJO07cxM4k-27" edge="1">
          <mxGeometry relative="1" as="geometry" />
        </mxCell>
        <mxCell id="zYm0TpzJEBnJO07cxM4k-10" value="Solutions (drop down menu)" style="rounded=1;whiteSpace=wrap;html=1;" parent="1" vertex="1">
          <mxGeometry x="320" y="320" width="120" height="60" as="geometry" />
        </mxCell>
        <mxCell id="zYm0TpzJEBnJO07cxM4k-34" style="edgeStyle=orthogonalEdgeStyle;rounded=0;orthogonalLoop=1;jettySize=auto;html=1;entryX=0;entryY=0.5;entryDx=0;entryDy=0;" parent="1" source="zYm0TpzJEBnJO07cxM4k-13" target="zYm0TpzJEBnJO07cxM4k-30" edge="1">
          <mxGeometry relative="1" as="geometry" />
        </mxCell>
        <mxCell id="zYm0TpzJEBnJO07cxM4k-35" style="edgeStyle=orthogonalEdgeStyle;rounded=0;orthogonalLoop=1;jettySize=auto;html=1;entryX=0;entryY=0.5;entryDx=0;entryDy=0;" parent="1" source="zYm0TpzJEBnJO07cxM4k-13" target="zYm0TpzJEBnJO07cxM4k-32" edge="1">
          <mxGeometry relative="1" as="geometry" />
        </mxCell>
        <mxCell id="KZaD1BsAd-85yGj1GfAQ-2" style="edgeStyle=orthogonalEdgeStyle;rounded=0;orthogonalLoop=1;jettySize=auto;html=1;entryX=0;entryY=0.5;entryDx=0;entryDy=0;" parent="1" source="zYm0TpzJEBnJO07cxM4k-13" target="KZaD1BsAd-85yGj1GfAQ-1" edge="1">
          <mxGeometry relative="1" as="geometry" />
        </mxCell>
        <mxCell id="zYm0TpzJEBnJO07cxM4k-13" value="Resources (drop down menu)" style="rounded=1;whiteSpace=wrap;html=1;" parent="1" vertex="1">
          <mxGeometry x="470" y="320" width="120" height="60" as="geometry" />
        </mxCell>
        <mxCell id="zYm0TpzJEBnJO07cxM4k-14" value="About (HLINK to other page&lt;span style=&quot;background-color: transparent; color: light-dark(rgb(0, 0, 0), rgb(255, 255, 255));&quot;&gt;)&amp;nbsp;&lt;/span&gt;" style="rounded=1;whiteSpace=wrap;html=1;" parent="1" vertex="1">
          <mxGeometry x="680" y="310" width="120" height="60" as="geometry" />
        </mxCell>
        <mxCell id="KZaD1BsAd-85yGj1GfAQ-9" style="edgeStyle=orthogonalEdgeStyle;rounded=0;orthogonalLoop=1;jettySize=auto;html=1;entryX=0.5;entryY=0;entryDx=0;entryDy=0;" parent="1" source="zYm0TpzJEBnJO07cxM4k-16" target="KZaD1BsAd-85yGj1GfAQ-7" edge="1">
          <mxGeometry relative="1" as="geometry" />
        </mxCell>
        <mxCell id="zYm0TpzJEBnJO07cxM4k-16" value="Start your asssesment (Button)" style="rounded=1;whiteSpace=wrap;html=1;" parent="1" vertex="1">
          <mxGeometry x="1000" y="310" width="120" height="60" as="geometry" />
        </mxCell>
        <mxCell id="KZaD1BsAd-85yGj1GfAQ-8" style="edgeStyle=orthogonalEdgeStyle;rounded=0;orthogonalLoop=1;jettySize=auto;html=1;entryX=0.5;entryY=0;entryDx=0;entryDy=0;" parent="1" source="zYm0TpzJEBnJO07cxM4k-17" target="KZaD1BsAd-85yGj1GfAQ-6" edge="1">
          <mxGeometry relative="1" as="geometry" />
        </mxCell>
        <mxCell id="zYm0TpzJEBnJO07cxM4k-17" value="Contact Us (Button)" style="rounded=1;whiteSpace=wrap;html=1;" parent="1" vertex="1">
          <mxGeometry x="860" y="310" width="120" height="60" as="geometry" />
        </mxCell>
        <mxCell id="zYm0TpzJEBnJO07cxM4k-24" value="BrightForecast™ (HLINK to other page)" style="rounded=1;whiteSpace=wrap;html=1;" parent="1" vertex="1">
          <mxGeometry x="400" y="420" width="120" height="60" as="geometry" />
        </mxCell>
        <mxCell id="zYm0TpzJEBnJO07cxM4k-26" value="BrightRevenue™ (HLINK to other page)" style="rounded=1;whiteSpace=wrap;html=1;" parent="1" vertex="1">
          <mxGeometry x="400" y="490" width="120" height="60" as="geometry" />
        </mxCell>
        <mxCell id="zYm0TpzJEBnJO07cxM4k-27" value="BrightPrice™ (HLINK to other page)" style="rounded=1;whiteSpace=wrap;html=1;" parent="1" vertex="1">
          <mxGeometry x="400" y="555" width="120" height="60" as="geometry" />
        </mxCell>
        <mxCell id="zYm0TpzJEBnJO07cxM4k-30" value="AIM³ Framework (HLINK to other page)" style="rounded=1;whiteSpace=wrap;html=1;" parent="1" vertex="1">
          <mxGeometry x="550" y="420" width="120" height="60" as="geometry" />
        </mxCell>
        <mxCell id="zYm0TpzJEBnJO07cxM4k-32" value="ROI Calculator&lt;span style=&quot;background-color: transparent; color: light-dark(rgb(0, 0, 0), rgb(255, 255, 255));&quot;&gt;&amp;nbsp;(HLINK to other page)&lt;/span&gt;" style="rounded=1;whiteSpace=wrap;html=1;" parent="1" vertex="1">
          <mxGeometry x="550" y="490" width="120" height="60" as="geometry" />
        </mxCell>
        <mxCell id="KZaD1BsAd-85yGj1GfAQ-1" value="Assestment&lt;span style=&quot;background-color: transparent; color: light-dark(rgb(0, 0, 0), rgb(255, 255, 255));&quot;&gt;&amp;nbsp;(HLINK to other page)&lt;/span&gt;" style="rounded=1;whiteSpace=wrap;html=1;" parent="1" vertex="1">
          <mxGeometry x="550" y="560" width="120" height="60" as="geometry" />
        </mxCell>
        <mxCell id="KZaD1BsAd-85yGj1GfAQ-6" value="Button calls to other page, is a contact form" style="rounded=1;whiteSpace=wrap;html=1;" parent="1" vertex="1">
          <mxGeometry x="860" y="390" width="120" height="60" as="geometry" />
        </mxCell>
        <mxCell id="KZaD1BsAd-85yGj1GfAQ-7" value="Button calls to other page" style="rounded=1;whiteSpace=wrap;html=1;" parent="1" vertex="1">
          <mxGeometry x="1000" y="390" width="120" height="60" as="geometry" />
        </mxCell>
        <mxCell id="KZaD1BsAd-85yGj1GfAQ-16" style="edgeStyle=orthogonalEdgeStyle;rounded=0;orthogonalLoop=1;jettySize=auto;html=1;entryX=0;entryY=0.5;entryDx=0;entryDy=0;" parent="1" source="KZaD1BsAd-85yGj1GfAQ-11" target="KZaD1BsAd-85yGj1GfAQ-12" edge="1">
          <mxGeometry relative="1" as="geometry" />
        </mxCell>
        <mxCell id="KZaD1BsAd-85yGj1GfAQ-21" style="edgeStyle=orthogonalEdgeStyle;rounded=0;orthogonalLoop=1;jettySize=auto;html=1;entryX=0;entryY=0.5;entryDx=0;entryDy=0;" parent="1" source="KZaD1BsAd-85yGj1GfAQ-11" target="KZaD1BsAd-85yGj1GfAQ-19" edge="1">
          <mxGeometry relative="1" as="geometry" />
        </mxCell>
        <mxCell id="KZaD1BsAd-85yGj1GfAQ-11" value="Hero section (página 3 - 6 approx)" style="rounded=0;whiteSpace=wrap;html=1;" parent="1" vertex="1">
          <mxGeometry x="270" y="760" width="120" height="60" as="geometry" />
        </mxCell>
        <mxCell id="KZaD1BsAd-85yGj1GfAQ-15" style="edgeStyle=orthogonalEdgeStyle;rounded=0;orthogonalLoop=1;jettySize=auto;html=1;entryX=0;entryY=0.5;entryDx=0;entryDy=0;" parent="1" source="KZaD1BsAd-85yGj1GfAQ-12" target="KZaD1BsAd-85yGj1GfAQ-14" edge="1">
          <mxGeometry relative="1" as="geometry" />
        </mxCell>
        <mxCell id="KZaD1BsAd-85yGj1GfAQ-12" value=" Start Your AI Readiness Assessment&lt;div&gt;(Button)&lt;/div&gt;" style="rounded=0;whiteSpace=wrap;html=1;" parent="1" vertex="1">
          <mxGeometry x="370" y="850" width="120" height="60" as="geometry" />
        </mxCell>
        <mxCell id="KZaD1BsAd-85yGj1GfAQ-14" value="Button calls to other page" style="rounded=1;whiteSpace=wrap;html=1;" parent="1" vertex="1">
          <mxGeometry x="520" y="850" width="120" height="60" as="geometry" />
        </mxCell>
        <mxCell id="KZaD1BsAd-85yGj1GfAQ-18" style="edgeStyle=orthogonalEdgeStyle;rounded=0;orthogonalLoop=1;jettySize=auto;html=1;entryX=0;entryY=0.5;entryDx=0;entryDy=0;" parent="1" source="KZaD1BsAd-85yGj1GfAQ-19" target="KZaD1BsAd-85yGj1GfAQ-20" edge="1">
          <mxGeometry relative="1" as="geometry" />
        </mxCell>
        <mxCell id="KZaD1BsAd-85yGj1GfAQ-19" value=" Start Your AI Readiness Assessment&lt;div&gt;(Button)&lt;/div&gt;" style="rounded=0;whiteSpace=wrap;html=1;" parent="1" vertex="1">
          <mxGeometry x="370" y="930" width="120" height="60" as="geometry" />
        </mxCell>
        <mxCell id="KZaD1BsAd-85yGj1GfAQ-20" value="Button calls to other page" style="rounded=1;whiteSpace=wrap;html=1;" parent="1" vertex="1">
          <mxGeometry x="520" y="930" width="120" height="60" as="geometry" />
        </mxCell>
        <mxCell id="KZaD1BsAd-85yGj1GfAQ-22" value="Cuidado, hay prompts the GPT aquí, no las copies" style="shape=process;whiteSpace=wrap;html=1;backgroundOutline=1;" parent="1" vertex="1">
          <mxGeometry x="440" y="760" width="120" height="60" as="geometry" />
        </mxCell>
      </root>
    </mxGraphModel>
  </diagram>
  <diagram id="j9UXIthxATCkHEe4-yNk" name="About">
    <mxGraphModel dx="1107" dy="371" grid="1" gridSize="10" guides="1" tooltips="1" connect="1" arrows="1" fold="1" page="1" pageScale="1" pageWidth="827" pageHeight="1169" math="0" shadow="0">
      <root>
        <mxCell id="0" />
        <mxCell id="1" parent="0" />
        <mxCell id="qKbgR6wlsun0Sz5Rl6UA-1" style="edgeStyle=orthogonalEdgeStyle;rounded=0;orthogonalLoop=1;jettySize=auto;html=1;" edge="1" parent="1" source="qKbgR6wlsun0Sz5Rl6UA-8">
          <mxGeometry relative="1" as="geometry">
            <mxPoint x="90" y="320" as="targetPoint" />
          </mxGeometry>
        </mxCell>
        <mxCell id="qKbgR6wlsun0Sz5Rl6UA-2" style="edgeStyle=orthogonalEdgeStyle;rounded=0;orthogonalLoop=1;jettySize=auto;html=1;entryX=0.5;entryY=0;entryDx=0;entryDy=0;" edge="1" parent="1" source="qKbgR6wlsun0Sz5Rl6UA-8" target="qKbgR6wlsun0Sz5Rl6UA-11">
          <mxGeometry relative="1" as="geometry" />
        </mxCell>
        <mxCell id="qKbgR6wlsun0Sz5Rl6UA-3" style="edgeStyle=orthogonalEdgeStyle;rounded=0;orthogonalLoop=1;jettySize=auto;html=1;entryX=0.5;entryY=0;entryDx=0;entryDy=0;" edge="1" parent="1" source="qKbgR6wlsun0Sz5Rl6UA-8" target="qKbgR6wlsun0Sz5Rl6UA-15">
          <mxGeometry relative="1" as="geometry" />
        </mxCell>
        <mxCell id="qKbgR6wlsun0Sz5Rl6UA-4" style="edgeStyle=orthogonalEdgeStyle;rounded=0;orthogonalLoop=1;jettySize=auto;html=1;entryX=0.5;entryY=0;entryDx=0;entryDy=0;" edge="1" parent="1" source="qKbgR6wlsun0Sz5Rl6UA-8" target="qKbgR6wlsun0Sz5Rl6UA-19">
          <mxGeometry relative="1" as="geometry">
            <mxPoint x="522.2857142857143" y="320" as="targetPoint" />
          </mxGeometry>
        </mxCell>
        <mxCell id="qKbgR6wlsun0Sz5Rl6UA-5" style="edgeStyle=orthogonalEdgeStyle;rounded=0;orthogonalLoop=1;jettySize=auto;html=1;entryX=0.5;entryY=0;entryDx=0;entryDy=0;" edge="1" parent="1" source="qKbgR6wlsun0Sz5Rl6UA-8" target="qKbgR6wlsun0Sz5Rl6UA-20">
          <mxGeometry relative="1" as="geometry" />
        </mxCell>
        <mxCell id="qKbgR6wlsun0Sz5Rl6UA-6" style="edgeStyle=orthogonalEdgeStyle;rounded=0;orthogonalLoop=1;jettySize=auto;html=1;entryX=0.5;entryY=0;entryDx=0;entryDy=0;" edge="1" parent="1" source="qKbgR6wlsun0Sz5Rl6UA-8" target="qKbgR6wlsun0Sz5Rl6UA-24">
          <mxGeometry relative="1" as="geometry">
            <mxPoint x="820" y="320" as="targetPoint" />
          </mxGeometry>
        </mxCell>
        <mxCell id="qKbgR6wlsun0Sz5Rl6UA-7" style="edgeStyle=orthogonalEdgeStyle;rounded=0;orthogonalLoop=1;jettySize=auto;html=1;" edge="1" parent="1" source="qKbgR6wlsun0Sz5Rl6UA-8" target="qKbgR6wlsun0Sz5Rl6UA-22">
          <mxGeometry relative="1" as="geometry" />
        </mxCell>
        <mxCell id="qKbgR6wlsun0Sz5Rl6UA-8" value="Barra de navegación" style="rounded=0;whiteSpace=wrap;html=1;" vertex="1" parent="1">
          <mxGeometry x="130" y="200" width="120" height="60" as="geometry" />
        </mxCell>
        <mxCell id="qKbgR6wlsun0Sz5Rl6UA-9" style="edgeStyle=orthogonalEdgeStyle;rounded=0;orthogonalLoop=1;jettySize=auto;html=1;entryX=0;entryY=0.5;entryDx=0;entryDy=0;" edge="1" parent="1" source="qKbgR6wlsun0Sz5Rl6UA-10" target="qKbgR6wlsun0Sz5Rl6UA-33">
          <mxGeometry relative="1" as="geometry">
            <Array as="points">
              <mxPoint y="350" />
              <mxPoint y="120" />
            </Array>
          </mxGeometry>
        </mxCell>
        <mxCell id="qKbgR6wlsun0Sz5Rl6UA-10" value="El logo (regresa a home page)" style="rounded=1;whiteSpace=wrap;html=1;" vertex="1" parent="1">
          <mxGeometry x="30" y="320" width="120" height="60" as="geometry" />
        </mxCell>
        <mxCell id="qKbgR6wlsun0Sz5Rl6UA-11" value="Services (HLINK to other page)" style="rounded=1;whiteSpace=wrap;html=1;" vertex="1" parent="1">
          <mxGeometry x="170" y="320" width="120" height="60" as="geometry" />
        </mxCell>
        <mxCell id="qKbgR6wlsun0Sz5Rl6UA-12" style="edgeStyle=orthogonalEdgeStyle;rounded=0;orthogonalLoop=1;jettySize=auto;html=1;entryX=0;entryY=0.5;entryDx=0;entryDy=0;" edge="1" parent="1" source="qKbgR6wlsun0Sz5Rl6UA-15" target="qKbgR6wlsun0Sz5Rl6UA-25">
          <mxGeometry relative="1" as="geometry" />
        </mxCell>
        <mxCell id="qKbgR6wlsun0Sz5Rl6UA-13" style="edgeStyle=orthogonalEdgeStyle;rounded=0;orthogonalLoop=1;jettySize=auto;html=1;entryX=0;entryY=0.5;entryDx=0;entryDy=0;" edge="1" parent="1" source="qKbgR6wlsun0Sz5Rl6UA-15" target="qKbgR6wlsun0Sz5Rl6UA-26">
          <mxGeometry relative="1" as="geometry" />
        </mxCell>
        <mxCell id="qKbgR6wlsun0Sz5Rl6UA-14" style="edgeStyle=orthogonalEdgeStyle;rounded=0;orthogonalLoop=1;jettySize=auto;html=1;entryX=0;entryY=0.5;entryDx=0;entryDy=0;" edge="1" parent="1" source="qKbgR6wlsun0Sz5Rl6UA-15" target="qKbgR6wlsun0Sz5Rl6UA-27">
          <mxGeometry relative="1" as="geometry" />
        </mxCell>
        <mxCell id="qKbgR6wlsun0Sz5Rl6UA-15" value="Solutions (drop down menu)" style="rounded=1;whiteSpace=wrap;html=1;" vertex="1" parent="1">
          <mxGeometry x="320" y="320" width="120" height="60" as="geometry" />
        </mxCell>
        <mxCell id="qKbgR6wlsun0Sz5Rl6UA-16" style="edgeStyle=orthogonalEdgeStyle;rounded=0;orthogonalLoop=1;jettySize=auto;html=1;entryX=0;entryY=0.5;entryDx=0;entryDy=0;" edge="1" parent="1" source="qKbgR6wlsun0Sz5Rl6UA-19" target="qKbgR6wlsun0Sz5Rl6UA-28">
          <mxGeometry relative="1" as="geometry" />
        </mxCell>
        <mxCell id="qKbgR6wlsun0Sz5Rl6UA-17" style="edgeStyle=orthogonalEdgeStyle;rounded=0;orthogonalLoop=1;jettySize=auto;html=1;entryX=0;entryY=0.5;entryDx=0;entryDy=0;" edge="1" parent="1" source="qKbgR6wlsun0Sz5Rl6UA-19" target="qKbgR6wlsun0Sz5Rl6UA-29">
          <mxGeometry relative="1" as="geometry" />
        </mxCell>
        <mxCell id="qKbgR6wlsun0Sz5Rl6UA-18" style="edgeStyle=orthogonalEdgeStyle;rounded=0;orthogonalLoop=1;jettySize=auto;html=1;entryX=0;entryY=0.5;entryDx=0;entryDy=0;" edge="1" parent="1" source="qKbgR6wlsun0Sz5Rl6UA-19" target="qKbgR6wlsun0Sz5Rl6UA-30">
          <mxGeometry relative="1" as="geometry" />
        </mxCell>
        <mxCell id="qKbgR6wlsun0Sz5Rl6UA-19" value="Resources (drop down menu)" style="rounded=1;whiteSpace=wrap;html=1;" vertex="1" parent="1">
          <mxGeometry x="470" y="320" width="120" height="60" as="geometry" />
        </mxCell>
        <mxCell id="qKbgR6wlsun0Sz5Rl6UA-20" value="About (HLINK to other page&lt;span style=&quot;background-color: transparent; color: light-dark(rgb(0, 0, 0), rgb(255, 255, 255));&quot;&gt;)&amp;nbsp;&lt;/span&gt;" style="rounded=1;whiteSpace=wrap;html=1;" vertex="1" parent="1">
          <mxGeometry x="680" y="310" width="120" height="60" as="geometry" />
        </mxCell>
        <mxCell id="qKbgR6wlsun0Sz5Rl6UA-21" style="edgeStyle=orthogonalEdgeStyle;rounded=0;orthogonalLoop=1;jettySize=auto;html=1;entryX=0.5;entryY=0;entryDx=0;entryDy=0;" edge="1" parent="1" source="qKbgR6wlsun0Sz5Rl6UA-22" target="qKbgR6wlsun0Sz5Rl6UA-32">
          <mxGeometry relative="1" as="geometry" />
        </mxCell>
        <mxCell id="qKbgR6wlsun0Sz5Rl6UA-22" value="Start your asssesment (Button)" style="rounded=1;whiteSpace=wrap;html=1;" vertex="1" parent="1">
          <mxGeometry x="1000" y="310" width="120" height="60" as="geometry" />
        </mxCell>
        <mxCell id="qKbgR6wlsun0Sz5Rl6UA-23" style="edgeStyle=orthogonalEdgeStyle;rounded=0;orthogonalLoop=1;jettySize=auto;html=1;entryX=0.5;entryY=0;entryDx=0;entryDy=0;" edge="1" parent="1" source="qKbgR6wlsun0Sz5Rl6UA-24" target="qKbgR6wlsun0Sz5Rl6UA-31">
          <mxGeometry relative="1" as="geometry" />
        </mxCell>
        <mxCell id="qKbgR6wlsun0Sz5Rl6UA-24" value="Contact Us (Button)" style="rounded=1;whiteSpace=wrap;html=1;" vertex="1" parent="1">
          <mxGeometry x="860" y="310" width="120" height="60" as="geometry" />
        </mxCell>
        <mxCell id="qKbgR6wlsun0Sz5Rl6UA-25" value="BrightForecast™ (HLINK to other page)" style="rounded=1;whiteSpace=wrap;html=1;" vertex="1" parent="1">
          <mxGeometry x="400" y="420" width="120" height="60" as="geometry" />
        </mxCell>
        <mxCell id="qKbgR6wlsun0Sz5Rl6UA-26" value="BrightRevenue™ (HLINK to other page)" style="rounded=1;whiteSpace=wrap;html=1;" vertex="1" parent="1">
          <mxGeometry x="400" y="490" width="120" height="60" as="geometry" />
        </mxCell>
        <mxCell id="qKbgR6wlsun0Sz5Rl6UA-27" value="BrightPrice™ (HLINK to other page)" style="rounded=1;whiteSpace=wrap;html=1;" vertex="1" parent="1">
          <mxGeometry x="400" y="555" width="120" height="60" as="geometry" />
        </mxCell>
        <mxCell id="qKbgR6wlsun0Sz5Rl6UA-28" value="AIM³ Framework (HLINK to other page)" style="rounded=1;whiteSpace=wrap;html=1;" vertex="1" parent="1">
          <mxGeometry x="550" y="420" width="120" height="60" as="geometry" />
        </mxCell>
        <mxCell id="qKbgR6wlsun0Sz5Rl6UA-29" value="ROI Calculator&lt;span style=&quot;background-color: transparent; color: light-dark(rgb(0, 0, 0), rgb(255, 255, 255));&quot;&gt;&amp;nbsp;(HLINK to other page)&lt;/span&gt;" style="rounded=1;whiteSpace=wrap;html=1;" vertex="1" parent="1">
          <mxGeometry x="550" y="490" width="120" height="60" as="geometry" />
        </mxCell>
        <mxCell id="qKbgR6wlsun0Sz5Rl6UA-30" value="Assestment&lt;span style=&quot;background-color: transparent; color: light-dark(rgb(0, 0, 0), rgb(255, 255, 255));&quot;&gt;&amp;nbsp;(HLINK to other page)&lt;/span&gt;" style="rounded=1;whiteSpace=wrap;html=1;" vertex="1" parent="1">
          <mxGeometry x="550" y="560" width="120" height="60" as="geometry" />
        </mxCell>
        <mxCell id="qKbgR6wlsun0Sz5Rl6UA-31" value="Button calls to other page, is a contact form" style="rounded=1;whiteSpace=wrap;html=1;" vertex="1" parent="1">
          <mxGeometry x="860" y="390" width="120" height="60" as="geometry" />
        </mxCell>
        <mxCell id="qKbgR6wlsun0Sz5Rl6UA-32" value="Button calls to other page" style="rounded=1;whiteSpace=wrap;html=1;" vertex="1" parent="1">
          <mxGeometry x="1000" y="390" width="120" height="60" as="geometry" />
        </mxCell>
        <mxCell id="qKbgR6wlsun0Sz5Rl6UA-33" value="Homepage" style="rounded=1;whiteSpace=wrap;html=1;" vertex="1" parent="1">
          <mxGeometry x="20" y="90" width="120" height="60" as="geometry" />
        </mxCell>
        <mxCell id="qKbgR6wlsun0Sz5Rl6UA-34" style="edgeStyle=orthogonalEdgeStyle;rounded=0;orthogonalLoop=1;jettySize=auto;html=1;entryX=0.5;entryY=0;entryDx=0;entryDy=0;" edge="1" parent="1" source="qKbgR6wlsun0Sz5Rl6UA-36" target="qKbgR6wlsun0Sz5Rl6UA-8">
          <mxGeometry relative="1" as="geometry" />
        </mxCell>
        <mxCell id="qKbgR6wlsun0Sz5Rl6UA-35" style="edgeStyle=orthogonalEdgeStyle;rounded=0;orthogonalLoop=1;jettySize=auto;html=1;entryX=0.5;entryY=0;entryDx=0;entryDy=0;" edge="1" parent="1" source="qKbgR6wlsun0Sz5Rl6UA-36" target="qKbgR6wlsun0Sz5Rl6UA-37">
          <mxGeometry relative="1" as="geometry">
            <mxPoint x="180" y="710" as="targetPoint" />
            <Array as="points">
              <mxPoint x="230" y="170" />
              <mxPoint x="-40" y="170" />
              <mxPoint x="-40" y="630" />
              <mxPoint x="180" y="630" />
            </Array>
          </mxGeometry>
        </mxCell>
        <mxCell id="qKbgR6wlsun0Sz5Rl6UA-36" value="About" style="rounded=1;whiteSpace=wrap;html=1;" vertex="1" parent="1">
          <mxGeometry x="170" y="90" width="120" height="60" as="geometry" />
        </mxCell>
        <mxCell id="qKbgR6wlsun0Sz5Rl6UA-37" value="Cuerpo Empieza en la página 6 (versión larga)" style="rounded=1;whiteSpace=wrap;html=1;" vertex="1" parent="1">
          <mxGeometry x="120" y="730" width="120" height="60" as="geometry" />
        </mxCell>
      </root>
    </mxGraphModel>
  </diagram>
  <diagram id="7qi16vfHRmt_GuSsSVMI" name="Services">
    <mxGraphModel dx="2185" dy="623" grid="1" gridSize="10" guides="1" tooltips="1" connect="1" arrows="1" fold="1" page="1" pageScale="1" pageWidth="827" pageHeight="1169" math="0" shadow="0">
      <root>
        <mxCell id="0" />
        <mxCell id="1" parent="0" />
        <mxCell id="QhfZk5DGXq8rbyTWeuUF-1" style="edgeStyle=orthogonalEdgeStyle;rounded=0;orthogonalLoop=1;jettySize=auto;html=1;" edge="1" parent="1" source="QhfZk5DGXq8rbyTWeuUF-8">
          <mxGeometry relative="1" as="geometry">
            <mxPoint x="90" y="320" as="targetPoint" />
          </mxGeometry>
        </mxCell>
        <mxCell id="QhfZk5DGXq8rbyTWeuUF-2" style="edgeStyle=orthogonalEdgeStyle;rounded=0;orthogonalLoop=1;jettySize=auto;html=1;entryX=0.5;entryY=0;entryDx=0;entryDy=0;" edge="1" parent="1" source="QhfZk5DGXq8rbyTWeuUF-8" target="QhfZk5DGXq8rbyTWeuUF-11">
          <mxGeometry relative="1" as="geometry" />
        </mxCell>
        <mxCell id="QhfZk5DGXq8rbyTWeuUF-3" style="edgeStyle=orthogonalEdgeStyle;rounded=0;orthogonalLoop=1;jettySize=auto;html=1;entryX=0.5;entryY=0;entryDx=0;entryDy=0;" edge="1" parent="1" source="QhfZk5DGXq8rbyTWeuUF-8" target="QhfZk5DGXq8rbyTWeuUF-15">
          <mxGeometry relative="1" as="geometry" />
        </mxCell>
        <mxCell id="QhfZk5DGXq8rbyTWeuUF-4" style="edgeStyle=orthogonalEdgeStyle;rounded=0;orthogonalLoop=1;jettySize=auto;html=1;entryX=0.5;entryY=0;entryDx=0;entryDy=0;" edge="1" parent="1" source="QhfZk5DGXq8rbyTWeuUF-8" target="QhfZk5DGXq8rbyTWeuUF-19">
          <mxGeometry relative="1" as="geometry">
            <mxPoint x="522.2857142857143" y="320" as="targetPoint" />
          </mxGeometry>
        </mxCell>
        <mxCell id="QhfZk5DGXq8rbyTWeuUF-5" style="edgeStyle=orthogonalEdgeStyle;rounded=0;orthogonalLoop=1;jettySize=auto;html=1;entryX=0.5;entryY=0;entryDx=0;entryDy=0;" edge="1" parent="1" source="QhfZk5DGXq8rbyTWeuUF-8" target="QhfZk5DGXq8rbyTWeuUF-20">
          <mxGeometry relative="1" as="geometry" />
        </mxCell>
        <mxCell id="QhfZk5DGXq8rbyTWeuUF-6" style="edgeStyle=orthogonalEdgeStyle;rounded=0;orthogonalLoop=1;jettySize=auto;html=1;entryX=0.5;entryY=0;entryDx=0;entryDy=0;" edge="1" parent="1" source="QhfZk5DGXq8rbyTWeuUF-8" target="QhfZk5DGXq8rbyTWeuUF-24">
          <mxGeometry relative="1" as="geometry">
            <mxPoint x="820" y="320" as="targetPoint" />
          </mxGeometry>
        </mxCell>
        <mxCell id="QhfZk5DGXq8rbyTWeuUF-7" style="edgeStyle=orthogonalEdgeStyle;rounded=0;orthogonalLoop=1;jettySize=auto;html=1;" edge="1" parent="1" source="QhfZk5DGXq8rbyTWeuUF-8" target="QhfZk5DGXq8rbyTWeuUF-22">
          <mxGeometry relative="1" as="geometry" />
        </mxCell>
        <mxCell id="QhfZk5DGXq8rbyTWeuUF-8" value="Barra de navegación" style="rounded=0;whiteSpace=wrap;html=1;" vertex="1" parent="1">
          <mxGeometry x="130" y="200" width="120" height="60" as="geometry" />
        </mxCell>
        <mxCell id="QhfZk5DGXq8rbyTWeuUF-9" style="edgeStyle=orthogonalEdgeStyle;rounded=0;orthogonalLoop=1;jettySize=auto;html=1;entryX=0;entryY=0.5;entryDx=0;entryDy=0;" edge="1" parent="1" source="QhfZk5DGXq8rbyTWeuUF-10" target="QhfZk5DGXq8rbyTWeuUF-33">
          <mxGeometry relative="1" as="geometry">
            <Array as="points">
              <mxPoint y="350" />
              <mxPoint y="120" />
            </Array>
          </mxGeometry>
        </mxCell>
        <mxCell id="QhfZk5DGXq8rbyTWeuUF-10" value="El logo (regresa a home page)" style="rounded=1;whiteSpace=wrap;html=1;" vertex="1" parent="1">
          <mxGeometry x="30" y="320" width="120" height="60" as="geometry" />
        </mxCell>
        <mxCell id="QhfZk5DGXq8rbyTWeuUF-11" value="Services (HLINK to other page)" style="rounded=1;whiteSpace=wrap;html=1;" vertex="1" parent="1">
          <mxGeometry x="170" y="320" width="120" height="60" as="geometry" />
        </mxCell>
        <mxCell id="QhfZk5DGXq8rbyTWeuUF-12" style="edgeStyle=orthogonalEdgeStyle;rounded=0;orthogonalLoop=1;jettySize=auto;html=1;entryX=0;entryY=0.5;entryDx=0;entryDy=0;" edge="1" parent="1" source="QhfZk5DGXq8rbyTWeuUF-15" target="QhfZk5DGXq8rbyTWeuUF-25">
          <mxGeometry relative="1" as="geometry" />
        </mxCell>
        <mxCell id="QhfZk5DGXq8rbyTWeuUF-13" style="edgeStyle=orthogonalEdgeStyle;rounded=0;orthogonalLoop=1;jettySize=auto;html=1;entryX=0;entryY=0.5;entryDx=0;entryDy=0;" edge="1" parent="1" source="QhfZk5DGXq8rbyTWeuUF-15" target="QhfZk5DGXq8rbyTWeuUF-26">
          <mxGeometry relative="1" as="geometry" />
        </mxCell>
        <mxCell id="QhfZk5DGXq8rbyTWeuUF-14" style="edgeStyle=orthogonalEdgeStyle;rounded=0;orthogonalLoop=1;jettySize=auto;html=1;entryX=0;entryY=0.5;entryDx=0;entryDy=0;" edge="1" parent="1" source="QhfZk5DGXq8rbyTWeuUF-15" target="QhfZk5DGXq8rbyTWeuUF-27">
          <mxGeometry relative="1" as="geometry" />
        </mxCell>
        <mxCell id="QhfZk5DGXq8rbyTWeuUF-15" value="Solutions (drop down menu)" style="rounded=1;whiteSpace=wrap;html=1;" vertex="1" parent="1">
          <mxGeometry x="320" y="320" width="120" height="60" as="geometry" />
        </mxCell>
        <mxCell id="QhfZk5DGXq8rbyTWeuUF-16" style="edgeStyle=orthogonalEdgeStyle;rounded=0;orthogonalLoop=1;jettySize=auto;html=1;entryX=0;entryY=0.5;entryDx=0;entryDy=0;" edge="1" parent="1" source="QhfZk5DGXq8rbyTWeuUF-19" target="QhfZk5DGXq8rbyTWeuUF-28">
          <mxGeometry relative="1" as="geometry" />
        </mxCell>
        <mxCell id="QhfZk5DGXq8rbyTWeuUF-17" style="edgeStyle=orthogonalEdgeStyle;rounded=0;orthogonalLoop=1;jettySize=auto;html=1;entryX=0;entryY=0.5;entryDx=0;entryDy=0;" edge="1" parent="1" source="QhfZk5DGXq8rbyTWeuUF-19" target="QhfZk5DGXq8rbyTWeuUF-29">
          <mxGeometry relative="1" as="geometry" />
        </mxCell>
        <mxCell id="QhfZk5DGXq8rbyTWeuUF-18" style="edgeStyle=orthogonalEdgeStyle;rounded=0;orthogonalLoop=1;jettySize=auto;html=1;entryX=0;entryY=0.5;entryDx=0;entryDy=0;" edge="1" parent="1" source="QhfZk5DGXq8rbyTWeuUF-19" target="QhfZk5DGXq8rbyTWeuUF-30">
          <mxGeometry relative="1" as="geometry" />
        </mxCell>
        <mxCell id="QhfZk5DGXq8rbyTWeuUF-19" value="Resources (drop down menu)" style="rounded=1;whiteSpace=wrap;html=1;" vertex="1" parent="1">
          <mxGeometry x="470" y="320" width="120" height="60" as="geometry" />
        </mxCell>
        <mxCell id="QhfZk5DGXq8rbyTWeuUF-20" value="About (HLINK to other page&lt;span style=&quot;background-color: transparent; color: light-dark(rgb(0, 0, 0), rgb(255, 255, 255));&quot;&gt;)&amp;nbsp;&lt;/span&gt;" style="rounded=1;whiteSpace=wrap;html=1;" vertex="1" parent="1">
          <mxGeometry x="680" y="310" width="120" height="60" as="geometry" />
        </mxCell>
        <mxCell id="QhfZk5DGXq8rbyTWeuUF-21" style="edgeStyle=orthogonalEdgeStyle;rounded=0;orthogonalLoop=1;jettySize=auto;html=1;entryX=0.5;entryY=0;entryDx=0;entryDy=0;" edge="1" parent="1" source="QhfZk5DGXq8rbyTWeuUF-22" target="QhfZk5DGXq8rbyTWeuUF-32">
          <mxGeometry relative="1" as="geometry" />
        </mxCell>
        <mxCell id="QhfZk5DGXq8rbyTWeuUF-22" value="Start your asssesment (Button)" style="rounded=1;whiteSpace=wrap;html=1;" vertex="1" parent="1">
          <mxGeometry x="1000" y="310" width="120" height="60" as="geometry" />
        </mxCell>
        <mxCell id="QhfZk5DGXq8rbyTWeuUF-23" style="edgeStyle=orthogonalEdgeStyle;rounded=0;orthogonalLoop=1;jettySize=auto;html=1;entryX=0.5;entryY=0;entryDx=0;entryDy=0;" edge="1" parent="1" source="QhfZk5DGXq8rbyTWeuUF-24" target="QhfZk5DGXq8rbyTWeuUF-31">
          <mxGeometry relative="1" as="geometry" />
        </mxCell>
        <mxCell id="QhfZk5DGXq8rbyTWeuUF-24" value="Contact Us (Button)" style="rounded=1;whiteSpace=wrap;html=1;" vertex="1" parent="1">
          <mxGeometry x="860" y="310" width="120" height="60" as="geometry" />
        </mxCell>
        <mxCell id="QhfZk5DGXq8rbyTWeuUF-25" value="BrightForecast™ (HLINK to other page)" style="rounded=1;whiteSpace=wrap;html=1;" vertex="1" parent="1">
          <mxGeometry x="400" y="420" width="120" height="60" as="geometry" />
        </mxCell>
        <mxCell id="QhfZk5DGXq8rbyTWeuUF-26" value="BrightRevenue™ (HLINK to other page)" style="rounded=1;whiteSpace=wrap;html=1;" vertex="1" parent="1">
          <mxGeometry x="400" y="490" width="120" height="60" as="geometry" />
        </mxCell>
        <mxCell id="QhfZk5DGXq8rbyTWeuUF-27" value="BrightPrice™ (HLINK to other page)" style="rounded=1;whiteSpace=wrap;html=1;" vertex="1" parent="1">
          <mxGeometry x="400" y="555" width="120" height="60" as="geometry" />
        </mxCell>
        <mxCell id="QhfZk5DGXq8rbyTWeuUF-28" value="AIM³ Framework (HLINK to other page)" style="rounded=1;whiteSpace=wrap;html=1;" vertex="1" parent="1">
          <mxGeometry x="550" y="420" width="120" height="60" as="geometry" />
        </mxCell>
        <mxCell id="QhfZk5DGXq8rbyTWeuUF-29" value="ROI Calculator&lt;span style=&quot;background-color: transparent; color: light-dark(rgb(0, 0, 0), rgb(255, 255, 255));&quot;&gt;&amp;nbsp;(HLINK to other page)&lt;/span&gt;" style="rounded=1;whiteSpace=wrap;html=1;" vertex="1" parent="1">
          <mxGeometry x="550" y="490" width="120" height="60" as="geometry" />
        </mxCell>
        <mxCell id="QhfZk5DGXq8rbyTWeuUF-30" value="Assestment&lt;span style=&quot;background-color: transparent; color: light-dark(rgb(0, 0, 0), rgb(255, 255, 255));&quot;&gt;&amp;nbsp;(HLINK to other page)&lt;/span&gt;" style="rounded=1;whiteSpace=wrap;html=1;" vertex="1" parent="1">
          <mxGeometry x="550" y="560" width="120" height="60" as="geometry" />
        </mxCell>
        <mxCell id="QhfZk5DGXq8rbyTWeuUF-31" value="Button calls to other page, is a contact form" style="rounded=1;whiteSpace=wrap;html=1;" vertex="1" parent="1">
          <mxGeometry x="860" y="390" width="120" height="60" as="geometry" />
        </mxCell>
        <mxCell id="QhfZk5DGXq8rbyTWeuUF-32" value="Button calls to other page" style="rounded=1;whiteSpace=wrap;html=1;" vertex="1" parent="1">
          <mxGeometry x="1000" y="390" width="120" height="60" as="geometry" />
        </mxCell>
        <mxCell id="QhfZk5DGXq8rbyTWeuUF-33" value="Homepage" style="rounded=1;whiteSpace=wrap;html=1;" vertex="1" parent="1">
          <mxGeometry x="20" y="90" width="120" height="60" as="geometry" />
        </mxCell>
        <mxCell id="QhfZk5DGXq8rbyTWeuUF-34" style="edgeStyle=orthogonalEdgeStyle;rounded=0;orthogonalLoop=1;jettySize=auto;html=1;entryX=0.5;entryY=0;entryDx=0;entryDy=0;" edge="1" parent="1" source="QhfZk5DGXq8rbyTWeuUF-36" target="QhfZk5DGXq8rbyTWeuUF-8">
          <mxGeometry relative="1" as="geometry" />
        </mxCell>
        <mxCell id="QhfZk5DGXq8rbyTWeuUF-35" style="edgeStyle=orthogonalEdgeStyle;rounded=0;orthogonalLoop=1;jettySize=auto;html=1;entryX=0.5;entryY=0;entryDx=0;entryDy=0;" edge="1" parent="1" source="QhfZk5DGXq8rbyTWeuUF-36" target="QhfZk5DGXq8rbyTWeuUF-37">
          <mxGeometry relative="1" as="geometry">
            <mxPoint x="180" y="710" as="targetPoint" />
            <Array as="points">
              <mxPoint x="230" y="170" />
              <mxPoint x="-40" y="170" />
              <mxPoint x="-40" y="630" />
              <mxPoint x="180" y="630" />
            </Array>
          </mxGeometry>
        </mxCell>
        <mxCell id="QhfZk5DGXq8rbyTWeuUF-36" value="Services" style="rounded=1;whiteSpace=wrap;html=1;" vertex="1" parent="1">
          <mxGeometry x="170" y="90" width="120" height="60" as="geometry" />
        </mxCell>
        <mxCell id="QhfZk5DGXq8rbyTWeuUF-39" style="edgeStyle=orthogonalEdgeStyle;rounded=0;orthogonalLoop=1;jettySize=auto;html=1;entryX=0.5;entryY=0;entryDx=0;entryDy=0;" edge="1" parent="1" source="QhfZk5DGXq8rbyTWeuUF-37" target="QhfZk5DGXq8rbyTWeuUF-38">
          <mxGeometry relative="1" as="geometry" />
        </mxCell>
        <mxCell id="QhfZk5DGXq8rbyTWeuUF-37" value="Contenido en página 14" style="rounded=1;whiteSpace=wrap;html=1;" vertex="1" parent="1">
          <mxGeometry x="120" y="730" width="120" height="60" as="geometry" />
        </mxCell>
        <mxCell id="QhfZk5DGXq8rbyTWeuUF-38" value="Referencia en la página 15" style="rounded=1;whiteSpace=wrap;html=1;" vertex="1" parent="1">
          <mxGeometry x="120" y="820" width="120" height="60" as="geometry" />
        </mxCell>
      </root>
    </mxGraphModel>
  </diagram>
  <diagram id="Ua3sWpDLjXxMF82oaIE_" name="Start your assesment">
    <mxGraphModel dx="2457" dy="748" grid="1" gridSize="10" guides="1" tooltips="1" connect="1" arrows="1" fold="1" page="1" pageScale="1" pageWidth="827" pageHeight="1169" math="0" shadow="0">
      <root>
        <mxCell id="0" />
        <mxCell id="1" parent="0" />
        <mxCell id="nnC67JLwWX0whVrMLFXk-1" style="edgeStyle=orthogonalEdgeStyle;rounded=0;orthogonalLoop=1;jettySize=auto;html=1;" edge="1" parent="1" source="nnC67JLwWX0whVrMLFXk-8">
          <mxGeometry relative="1" as="geometry">
            <mxPoint x="90" y="320" as="targetPoint" />
          </mxGeometry>
        </mxCell>
        <mxCell id="nnC67JLwWX0whVrMLFXk-2" style="edgeStyle=orthogonalEdgeStyle;rounded=0;orthogonalLoop=1;jettySize=auto;html=1;entryX=0.5;entryY=0;entryDx=0;entryDy=0;" edge="1" parent="1" source="nnC67JLwWX0whVrMLFXk-8" target="nnC67JLwWX0whVrMLFXk-11">
          <mxGeometry relative="1" as="geometry" />
        </mxCell>
        <mxCell id="nnC67JLwWX0whVrMLFXk-3" style="edgeStyle=orthogonalEdgeStyle;rounded=0;orthogonalLoop=1;jettySize=auto;html=1;entryX=0.5;entryY=0;entryDx=0;entryDy=0;" edge="1" parent="1" source="nnC67JLwWX0whVrMLFXk-8" target="nnC67JLwWX0whVrMLFXk-15">
          <mxGeometry relative="1" as="geometry" />
        </mxCell>
        <mxCell id="nnC67JLwWX0whVrMLFXk-4" style="edgeStyle=orthogonalEdgeStyle;rounded=0;orthogonalLoop=1;jettySize=auto;html=1;entryX=0.5;entryY=0;entryDx=0;entryDy=0;" edge="1" parent="1" source="nnC67JLwWX0whVrMLFXk-8" target="nnC67JLwWX0whVrMLFXk-19">
          <mxGeometry relative="1" as="geometry">
            <mxPoint x="522.2857142857143" y="320" as="targetPoint" />
          </mxGeometry>
        </mxCell>
        <mxCell id="nnC67JLwWX0whVrMLFXk-5" style="edgeStyle=orthogonalEdgeStyle;rounded=0;orthogonalLoop=1;jettySize=auto;html=1;entryX=0.5;entryY=0;entryDx=0;entryDy=0;" edge="1" parent="1" source="nnC67JLwWX0whVrMLFXk-8" target="nnC67JLwWX0whVrMLFXk-20">
          <mxGeometry relative="1" as="geometry" />
        </mxCell>
        <mxCell id="nnC67JLwWX0whVrMLFXk-6" style="edgeStyle=orthogonalEdgeStyle;rounded=0;orthogonalLoop=1;jettySize=auto;html=1;entryX=0.5;entryY=0;entryDx=0;entryDy=0;" edge="1" parent="1" source="nnC67JLwWX0whVrMLFXk-8" target="nnC67JLwWX0whVrMLFXk-24">
          <mxGeometry relative="1" as="geometry">
            <mxPoint x="820" y="320" as="targetPoint" />
          </mxGeometry>
        </mxCell>
        <mxCell id="nnC67JLwWX0whVrMLFXk-7" style="edgeStyle=orthogonalEdgeStyle;rounded=0;orthogonalLoop=1;jettySize=auto;html=1;" edge="1" parent="1" source="nnC67JLwWX0whVrMLFXk-8" target="nnC67JLwWX0whVrMLFXk-22">
          <mxGeometry relative="1" as="geometry" />
        </mxCell>
        <mxCell id="nnC67JLwWX0whVrMLFXk-8" value="Barra de navegación" style="rounded=0;whiteSpace=wrap;html=1;" vertex="1" parent="1">
          <mxGeometry x="130" y="200" width="120" height="60" as="geometry" />
        </mxCell>
        <mxCell id="nnC67JLwWX0whVrMLFXk-9" style="edgeStyle=orthogonalEdgeStyle;rounded=0;orthogonalLoop=1;jettySize=auto;html=1;entryX=0;entryY=0.5;entryDx=0;entryDy=0;" edge="1" parent="1" source="nnC67JLwWX0whVrMLFXk-10" target="nnC67JLwWX0whVrMLFXk-33">
          <mxGeometry relative="1" as="geometry">
            <Array as="points">
              <mxPoint y="350" />
              <mxPoint y="120" />
            </Array>
          </mxGeometry>
        </mxCell>
        <mxCell id="nnC67JLwWX0whVrMLFXk-10" value="El logo (regresa a home page)" style="rounded=1;whiteSpace=wrap;html=1;" vertex="1" parent="1">
          <mxGeometry x="30" y="320" width="120" height="60" as="geometry" />
        </mxCell>
        <mxCell id="nnC67JLwWX0whVrMLFXk-11" value="Services (HLINK to other page)" style="rounded=1;whiteSpace=wrap;html=1;" vertex="1" parent="1">
          <mxGeometry x="170" y="320" width="120" height="60" as="geometry" />
        </mxCell>
        <mxCell id="nnC67JLwWX0whVrMLFXk-12" style="edgeStyle=orthogonalEdgeStyle;rounded=0;orthogonalLoop=1;jettySize=auto;html=1;entryX=0;entryY=0.5;entryDx=0;entryDy=0;" edge="1" parent="1" source="nnC67JLwWX0whVrMLFXk-15" target="nnC67JLwWX0whVrMLFXk-25">
          <mxGeometry relative="1" as="geometry" />
        </mxCell>
        <mxCell id="nnC67JLwWX0whVrMLFXk-13" style="edgeStyle=orthogonalEdgeStyle;rounded=0;orthogonalLoop=1;jettySize=auto;html=1;entryX=0;entryY=0.5;entryDx=0;entryDy=0;" edge="1" parent="1" source="nnC67JLwWX0whVrMLFXk-15" target="nnC67JLwWX0whVrMLFXk-26">
          <mxGeometry relative="1" as="geometry" />
        </mxCell>
        <mxCell id="nnC67JLwWX0whVrMLFXk-14" style="edgeStyle=orthogonalEdgeStyle;rounded=0;orthogonalLoop=1;jettySize=auto;html=1;entryX=0;entryY=0.5;entryDx=0;entryDy=0;" edge="1" parent="1" source="nnC67JLwWX0whVrMLFXk-15" target="nnC67JLwWX0whVrMLFXk-27">
          <mxGeometry relative="1" as="geometry" />
        </mxCell>
        <mxCell id="nnC67JLwWX0whVrMLFXk-15" value="Solutions (drop down menu)" style="rounded=1;whiteSpace=wrap;html=1;" vertex="1" parent="1">
          <mxGeometry x="320" y="320" width="120" height="60" as="geometry" />
        </mxCell>
        <mxCell id="nnC67JLwWX0whVrMLFXk-16" style="edgeStyle=orthogonalEdgeStyle;rounded=0;orthogonalLoop=1;jettySize=auto;html=1;entryX=0;entryY=0.5;entryDx=0;entryDy=0;" edge="1" parent="1" source="nnC67JLwWX0whVrMLFXk-19" target="nnC67JLwWX0whVrMLFXk-28">
          <mxGeometry relative="1" as="geometry" />
        </mxCell>
        <mxCell id="nnC67JLwWX0whVrMLFXk-17" style="edgeStyle=orthogonalEdgeStyle;rounded=0;orthogonalLoop=1;jettySize=auto;html=1;entryX=0;entryY=0.5;entryDx=0;entryDy=0;" edge="1" parent="1" source="nnC67JLwWX0whVrMLFXk-19" target="nnC67JLwWX0whVrMLFXk-29">
          <mxGeometry relative="1" as="geometry" />
        </mxCell>
        <mxCell id="nnC67JLwWX0whVrMLFXk-18" style="edgeStyle=orthogonalEdgeStyle;rounded=0;orthogonalLoop=1;jettySize=auto;html=1;entryX=0;entryY=0.5;entryDx=0;entryDy=0;" edge="1" parent="1" source="nnC67JLwWX0whVrMLFXk-19" target="nnC67JLwWX0whVrMLFXk-30">
          <mxGeometry relative="1" as="geometry" />
        </mxCell>
        <mxCell id="nnC67JLwWX0whVrMLFXk-19" value="Resources (drop down menu)" style="rounded=1;whiteSpace=wrap;html=1;" vertex="1" parent="1">
          <mxGeometry x="470" y="320" width="120" height="60" as="geometry" />
        </mxCell>
        <mxCell id="nnC67JLwWX0whVrMLFXk-20" value="About (HLINK to other page&lt;span style=&quot;background-color: transparent; color: light-dark(rgb(0, 0, 0), rgb(255, 255, 255));&quot;&gt;)&amp;nbsp;&lt;/span&gt;" style="rounded=1;whiteSpace=wrap;html=1;" vertex="1" parent="1">
          <mxGeometry x="680" y="310" width="120" height="60" as="geometry" />
        </mxCell>
        <mxCell id="nnC67JLwWX0whVrMLFXk-21" style="edgeStyle=orthogonalEdgeStyle;rounded=0;orthogonalLoop=1;jettySize=auto;html=1;entryX=0.5;entryY=0;entryDx=0;entryDy=0;" edge="1" parent="1" source="nnC67JLwWX0whVrMLFXk-22" target="nnC67JLwWX0whVrMLFXk-32">
          <mxGeometry relative="1" as="geometry" />
        </mxCell>
        <mxCell id="nnC67JLwWX0whVrMLFXk-22" value="Start your asssesment (Button)" style="rounded=1;whiteSpace=wrap;html=1;" vertex="1" parent="1">
          <mxGeometry x="1000" y="310" width="120" height="60" as="geometry" />
        </mxCell>
        <mxCell id="nnC67JLwWX0whVrMLFXk-23" style="edgeStyle=orthogonalEdgeStyle;rounded=0;orthogonalLoop=1;jettySize=auto;html=1;entryX=0.5;entryY=0;entryDx=0;entryDy=0;" edge="1" parent="1" source="nnC67JLwWX0whVrMLFXk-24" target="nnC67JLwWX0whVrMLFXk-31">
          <mxGeometry relative="1" as="geometry" />
        </mxCell>
        <mxCell id="nnC67JLwWX0whVrMLFXk-24" value="Contact Us (Button)" style="rounded=1;whiteSpace=wrap;html=1;" vertex="1" parent="1">
          <mxGeometry x="860" y="310" width="120" height="60" as="geometry" />
        </mxCell>
        <mxCell id="nnC67JLwWX0whVrMLFXk-25" value="BrightForecast™ (HLINK to other page)" style="rounded=1;whiteSpace=wrap;html=1;" vertex="1" parent="1">
          <mxGeometry x="400" y="420" width="120" height="60" as="geometry" />
        </mxCell>
        <mxCell id="nnC67JLwWX0whVrMLFXk-26" value="BrightRevenue™ (HLINK to other page)" style="rounded=1;whiteSpace=wrap;html=1;" vertex="1" parent="1">
          <mxGeometry x="400" y="490" width="120" height="60" as="geometry" />
        </mxCell>
        <mxCell id="nnC67JLwWX0whVrMLFXk-27" value="BrightPrice™ (HLINK to other page)" style="rounded=1;whiteSpace=wrap;html=1;" vertex="1" parent="1">
          <mxGeometry x="400" y="555" width="120" height="60" as="geometry" />
        </mxCell>
        <mxCell id="nnC67JLwWX0whVrMLFXk-28" value="AIM³ Framework (HLINK to other page)" style="rounded=1;whiteSpace=wrap;html=1;" vertex="1" parent="1">
          <mxGeometry x="550" y="420" width="120" height="60" as="geometry" />
        </mxCell>
        <mxCell id="nnC67JLwWX0whVrMLFXk-29" value="ROI Calculator&lt;span style=&quot;background-color: transparent; color: light-dark(rgb(0, 0, 0), rgb(255, 255, 255));&quot;&gt;&amp;nbsp;(HLINK to other page)&lt;/span&gt;" style="rounded=1;whiteSpace=wrap;html=1;" vertex="1" parent="1">
          <mxGeometry x="550" y="490" width="120" height="60" as="geometry" />
        </mxCell>
        <mxCell id="nnC67JLwWX0whVrMLFXk-30" value="Assestment&lt;span style=&quot;background-color: transparent; color: light-dark(rgb(0, 0, 0), rgb(255, 255, 255));&quot;&gt;&amp;nbsp;(HLINK to other page)&lt;/span&gt;" style="rounded=1;whiteSpace=wrap;html=1;" vertex="1" parent="1">
          <mxGeometry x="550" y="560" width="120" height="60" as="geometry" />
        </mxCell>
        <mxCell id="nnC67JLwWX0whVrMLFXk-31" value="Button calls to other page, is a contact form" style="rounded=1;whiteSpace=wrap;html=1;" vertex="1" parent="1">
          <mxGeometry x="860" y="390" width="120" height="60" as="geometry" />
        </mxCell>
        <mxCell id="nnC67JLwWX0whVrMLFXk-32" value="Button calls to other page" style="rounded=1;whiteSpace=wrap;html=1;" vertex="1" parent="1">
          <mxGeometry x="1000" y="390" width="120" height="60" as="geometry" />
        </mxCell>
        <mxCell id="nnC67JLwWX0whVrMLFXk-33" value="Homepage" style="rounded=1;whiteSpace=wrap;html=1;" vertex="1" parent="1">
          <mxGeometry x="20" y="90" width="120" height="60" as="geometry" />
        </mxCell>
        <mxCell id="nnC67JLwWX0whVrMLFXk-34" style="edgeStyle=orthogonalEdgeStyle;rounded=0;orthogonalLoop=1;jettySize=auto;html=1;entryX=0.5;entryY=0;entryDx=0;entryDy=0;" edge="1" parent="1" source="nnC67JLwWX0whVrMLFXk-36" target="nnC67JLwWX0whVrMLFXk-8">
          <mxGeometry relative="1" as="geometry" />
        </mxCell>
        <mxCell id="nnC67JLwWX0whVrMLFXk-35" style="edgeStyle=orthogonalEdgeStyle;rounded=0;orthogonalLoop=1;jettySize=auto;html=1;entryX=0.5;entryY=0;entryDx=0;entryDy=0;" edge="1" parent="1" source="nnC67JLwWX0whVrMLFXk-36" target="nnC67JLwWX0whVrMLFXk-37">
          <mxGeometry relative="1" as="geometry">
            <mxPoint x="180" y="710" as="targetPoint" />
            <Array as="points">
              <mxPoint x="230" y="170" />
              <mxPoint x="-40" y="170" />
              <mxPoint x="-40" y="630" />
              <mxPoint x="180" y="630" />
            </Array>
          </mxGeometry>
        </mxCell>
        <mxCell id="nnC67JLwWX0whVrMLFXk-36" value="Start your assesment" style="rounded=1;whiteSpace=wrap;html=1;" vertex="1" parent="1">
          <mxGeometry x="170" y="90" width="120" height="60" as="geometry" />
        </mxCell>
        <mxCell id="nnC67JLwWX0whVrMLFXk-39" style="edgeStyle=orthogonalEdgeStyle;rounded=0;orthogonalLoop=1;jettySize=auto;html=1;entryX=0.5;entryY=0;entryDx=0;entryDy=0;" edge="1" parent="1" source="nnC67JLwWX0whVrMLFXk-37" target="nnC67JLwWX0whVrMLFXk-38">
          <mxGeometry relative="1" as="geometry">
            <Array as="points">
              <mxPoint x="180" y="810" />
              <mxPoint x="390" y="810" />
            </Array>
          </mxGeometry>
        </mxCell>
        <mxCell id="nnC67JLwWX0whVrMLFXk-56" style="edgeStyle=orthogonalEdgeStyle;rounded=0;orthogonalLoop=1;jettySize=auto;html=1;entryX=0.5;entryY=0;entryDx=0;entryDy=0;" edge="1" parent="1" source="nnC67JLwWX0whVrMLFXk-37" target="nnC67JLwWX0whVrMLFXk-54">
          <mxGeometry relative="1" as="geometry" />
        </mxCell>
        <mxCell id="nnC67JLwWX0whVrMLFXk-58" style="edgeStyle=orthogonalEdgeStyle;rounded=0;orthogonalLoop=1;jettySize=auto;html=1;entryX=0.5;entryY=0;entryDx=0;entryDy=0;" edge="1" parent="1" source="nnC67JLwWX0whVrMLFXk-37" target="nnC67JLwWX0whVrMLFXk-57">
          <mxGeometry relative="1" as="geometry">
            <Array as="points">
              <mxPoint x="180" y="810" />
              <mxPoint x="30" y="810" />
            </Array>
          </mxGeometry>
        </mxCell>
        <mxCell id="nnC67JLwWX0whVrMLFXk-37" value="Contenido en página 11" style="rounded=1;whiteSpace=wrap;html=1;" vertex="1" parent="1">
          <mxGeometry x="120" y="730" width="120" height="60" as="geometry" />
        </mxCell>
        <mxCell id="nnC67JLwWX0whVrMLFXk-41" style="edgeStyle=orthogonalEdgeStyle;rounded=0;orthogonalLoop=1;jettySize=auto;html=1;entryX=0;entryY=0.5;entryDx=0;entryDy=0;" edge="1" parent="1" source="nnC67JLwWX0whVrMLFXk-38" target="nnC67JLwWX0whVrMLFXk-40">
          <mxGeometry relative="1" as="geometry" />
        </mxCell>
        <mxCell id="nnC67JLwWX0whVrMLFXk-48" style="edgeStyle=orthogonalEdgeStyle;rounded=0;orthogonalLoop=1;jettySize=auto;html=1;entryX=0;entryY=0.5;entryDx=0;entryDy=0;" edge="1" parent="1" source="nnC67JLwWX0whVrMLFXk-38" target="nnC67JLwWX0whVrMLFXk-42">
          <mxGeometry relative="1" as="geometry" />
        </mxCell>
        <mxCell id="nnC67JLwWX0whVrMLFXk-49" style="edgeStyle=orthogonalEdgeStyle;rounded=0;orthogonalLoop=1;jettySize=auto;html=1;entryX=0;entryY=0.5;entryDx=0;entryDy=0;" edge="1" parent="1" source="nnC67JLwWX0whVrMLFXk-38" target="nnC67JLwWX0whVrMLFXk-43">
          <mxGeometry relative="1" as="geometry" />
        </mxCell>
        <mxCell id="nnC67JLwWX0whVrMLFXk-50" style="edgeStyle=orthogonalEdgeStyle;rounded=0;orthogonalLoop=1;jettySize=auto;html=1;entryX=0;entryY=0.5;entryDx=0;entryDy=0;" edge="1" parent="1" source="nnC67JLwWX0whVrMLFXk-38" target="nnC67JLwWX0whVrMLFXk-44">
          <mxGeometry relative="1" as="geometry" />
        </mxCell>
        <mxCell id="nnC67JLwWX0whVrMLFXk-51" style="edgeStyle=orthogonalEdgeStyle;rounded=0;orthogonalLoop=1;jettySize=auto;html=1;entryX=0;entryY=0.5;entryDx=0;entryDy=0;" edge="1" parent="1" source="nnC67JLwWX0whVrMLFXk-38" target="nnC67JLwWX0whVrMLFXk-45">
          <mxGeometry relative="1" as="geometry" />
        </mxCell>
        <mxCell id="nnC67JLwWX0whVrMLFXk-52" style="edgeStyle=orthogonalEdgeStyle;rounded=0;orthogonalLoop=1;jettySize=auto;html=1;entryX=0;entryY=0.5;entryDx=0;entryDy=0;" edge="1" parent="1" source="nnC67JLwWX0whVrMLFXk-38" target="nnC67JLwWX0whVrMLFXk-47">
          <mxGeometry relative="1" as="geometry" />
        </mxCell>
        <mxCell id="nnC67JLwWX0whVrMLFXk-53" style="edgeStyle=orthogonalEdgeStyle;rounded=0;orthogonalLoop=1;jettySize=auto;html=1;entryX=0;entryY=0.5;entryDx=0;entryDy=0;" edge="1" parent="1" source="nnC67JLwWX0whVrMLFXk-38" target="nnC67JLwWX0whVrMLFXk-46">
          <mxGeometry relative="1" as="geometry" />
        </mxCell>
        <mxCell id="nnC67JLwWX0whVrMLFXk-62" style="edgeStyle=orthogonalEdgeStyle;rounded=0;orthogonalLoop=1;jettySize=auto;html=1;entryX=0.5;entryY=0;entryDx=0;entryDy=0;" edge="1" parent="1" source="nnC67JLwWX0whVrMLFXk-38" target="nnC67JLwWX0whVrMLFXk-61">
          <mxGeometry relative="1" as="geometry" />
        </mxCell>
        <mxCell id="nnC67JLwWX0whVrMLFXk-38" value="Form a llenar" style="rounded=1;whiteSpace=wrap;html=1;" vertex="1" parent="1">
          <mxGeometry x="330" y="830" width="120" height="60" as="geometry" />
        </mxCell>
        <mxCell id="nnC67JLwWX0whVrMLFXk-40" value="Full Name (text)" style="rounded=1;whiteSpace=wrap;html=1;" vertex="1" parent="1">
          <mxGeometry x="500" y="830" width="120" height="60" as="geometry" />
        </mxCell>
        <mxCell id="nnC67JLwWX0whVrMLFXk-42" value="Company Name (text)" style="rounded=1;whiteSpace=wrap;html=1;" vertex="1" parent="1">
          <mxGeometry x="500" y="900" width="120" height="60" as="geometry" />
        </mxCell>
        <mxCell id="nnC67JLwWX0whVrMLFXk-43" value="Work Email (email)&lt;span style=&quot;color: light-dark(rgba(0, 0, 0, 0), rgb(237, 237, 237)); font-family: monospace; font-size: 0px; text-align: start; text-wrap-mode: nowrap; background-color: transparent;&quot;&gt;%3CmxGraphModel%3E%3Croot%3E%3CmxCell%20id%3D%220%22%2F%3E%3CmxCell%20id%3D%221%22%20parent%3D%220%22%2F%3E%3CmxCell%20id%3D%222%22%20value%3D%22Company%20Name%22%20style%3D%22rounded%3D1%3BwhiteSpace%3Dwrap%3Bhtml%3D1%3B%22%20vertex%3D%221%22%20parent%3D%221%22%3E%3CmxGeometry%20x%3D%22290%22%20y%3D%22880%22%20width%3D%22120%22%20height%3D%2260%22%20as%3D%22geometry%22%2F%3E%3C%2FmxCell%3E%3C%2Froot%3E%3C%2FmxGraphModel%3E&amp;nbsp; (&lt;/span&gt;" style="rounded=1;whiteSpace=wrap;html=1;" vertex="1" parent="1">
          <mxGeometry x="500" y="970" width="120" height="60" as="geometry" />
        </mxCell>
        <mxCell id="nnC67JLwWX0whVrMLFXk-44" value="Department (dropdown)" style="rounded=1;whiteSpace=wrap;html=1;" vertex="1" parent="1">
          <mxGeometry x="500" y="1040" width="120" height="60" as="geometry" />
        </mxCell>
        <mxCell id="nnC67JLwWX0whVrMLFXk-45" value="Primary Challenge Are (dropdown or text (revisitar))" style="rounded=1;whiteSpace=wrap;html=1;" vertex="1" parent="1">
          <mxGeometry x="500" y="1110" width="120" height="60" as="geometry" />
        </mxCell>
        <mxCell id="nnC67JLwWX0whVrMLFXk-46" value="Employee Count (dropdown)" style="rounded=1;whiteSpace=wrap;html=1;" vertex="1" parent="1">
          <mxGeometry x="500" y="1250" width="120" height="60" as="geometry" />
        </mxCell>
        <mxCell id="nnC67JLwWX0whVrMLFXk-47" value="Estimated Revenue (dropdown)" style="rounded=1;whiteSpace=wrap;html=1;" vertex="1" parent="1">
          <mxGeometry x="500" y="1180" width="120" height="60" as="geometry" />
        </mxCell>
        <mxCell id="nnC67JLwWX0whVrMLFXk-54" value="Boton para descargar un PDF" style="rounded=1;whiteSpace=wrap;html=1;" vertex="1" parent="1">
          <mxGeometry x="120" y="830" width="120" height="60" as="geometry" />
        </mxCell>
        <mxCell id="nnC67JLwWX0whVrMLFXk-60" style="edgeStyle=orthogonalEdgeStyle;rounded=0;orthogonalLoop=1;jettySize=auto;html=1;entryX=0.5;entryY=0;entryDx=0;entryDy=0;" edge="1" parent="1" source="nnC67JLwWX0whVrMLFXk-57" target="nnC67JLwWX0whVrMLFXk-59">
          <mxGeometry relative="1" as="geometry" />
        </mxCell>
        <mxCell id="nnC67JLwWX0whVrMLFXk-57" value="Just want to talk? [Schedule a discovery call]" style="rounded=1;whiteSpace=wrap;html=1;" vertex="1" parent="1">
          <mxGeometry x="-30" y="830" width="120" height="60" as="geometry" />
        </mxCell>
        <mxCell id="nnC67JLwWX0whVrMLFXk-59" value="Liga a CALENDLY (app externa)" style="rounded=1;whiteSpace=wrap;html=1;" vertex="1" parent="1">
          <mxGeometry x="-30" y="910" width="120" height="60" as="geometry" />
        </mxCell>
        <mxCell id="nnC67JLwWX0whVrMLFXk-61" value="Una elemento visual de agradecimiento debe aparecer al final (pag 13)" style="rounded=1;whiteSpace=wrap;html=1;" vertex="1" parent="1">
          <mxGeometry x="330" y="1320" width="120" height="60" as="geometry" />
        </mxCell>
      </root>
    </mxGraphModel>
  </diagram>
  <diagram id="m4yrH10-CKSslU5U-gEw" name="Contact">
    <mxGraphModel dx="1415" dy="780" grid="1" gridSize="10" guides="1" tooltips="1" connect="1" arrows="1" fold="1" page="1" pageScale="1" pageWidth="827" pageHeight="1169" math="0" shadow="0">
      <root>
        <mxCell id="0" />
        <mxCell id="1" parent="0" />
        <mxCell id="9gKnXBG5WcIaXHr-JRwC-1" style="edgeStyle=orthogonalEdgeStyle;rounded=0;orthogonalLoop=1;jettySize=auto;html=1;" edge="1" parent="1" source="9gKnXBG5WcIaXHr-JRwC-8">
          <mxGeometry relative="1" as="geometry">
            <mxPoint x="90" y="320" as="targetPoint" />
          </mxGeometry>
        </mxCell>
        <mxCell id="9gKnXBG5WcIaXHr-JRwC-2" style="edgeStyle=orthogonalEdgeStyle;rounded=0;orthogonalLoop=1;jettySize=auto;html=1;entryX=0.5;entryY=0;entryDx=0;entryDy=0;" edge="1" parent="1" source="9gKnXBG5WcIaXHr-JRwC-8" target="9gKnXBG5WcIaXHr-JRwC-11">
          <mxGeometry relative="1" as="geometry" />
        </mxCell>
        <mxCell id="9gKnXBG5WcIaXHr-JRwC-3" style="edgeStyle=orthogonalEdgeStyle;rounded=0;orthogonalLoop=1;jettySize=auto;html=1;entryX=0.5;entryY=0;entryDx=0;entryDy=0;" edge="1" parent="1" source="9gKnXBG5WcIaXHr-JRwC-8" target="9gKnXBG5WcIaXHr-JRwC-15">
          <mxGeometry relative="1" as="geometry" />
        </mxCell>
        <mxCell id="9gKnXBG5WcIaXHr-JRwC-4" style="edgeStyle=orthogonalEdgeStyle;rounded=0;orthogonalLoop=1;jettySize=auto;html=1;entryX=0.5;entryY=0;entryDx=0;entryDy=0;" edge="1" parent="1" source="9gKnXBG5WcIaXHr-JRwC-8" target="9gKnXBG5WcIaXHr-JRwC-19">
          <mxGeometry relative="1" as="geometry">
            <mxPoint x="522.2857142857143" y="320" as="targetPoint" />
          </mxGeometry>
        </mxCell>
        <mxCell id="9gKnXBG5WcIaXHr-JRwC-5" style="edgeStyle=orthogonalEdgeStyle;rounded=0;orthogonalLoop=1;jettySize=auto;html=1;entryX=0.5;entryY=0;entryDx=0;entryDy=0;" edge="1" parent="1" source="9gKnXBG5WcIaXHr-JRwC-8" target="9gKnXBG5WcIaXHr-JRwC-20">
          <mxGeometry relative="1" as="geometry" />
        </mxCell>
        <mxCell id="9gKnXBG5WcIaXHr-JRwC-6" style="edgeStyle=orthogonalEdgeStyle;rounded=0;orthogonalLoop=1;jettySize=auto;html=1;entryX=0.5;entryY=0;entryDx=0;entryDy=0;" edge="1" parent="1" source="9gKnXBG5WcIaXHr-JRwC-8" target="9gKnXBG5WcIaXHr-JRwC-24">
          <mxGeometry relative="1" as="geometry">
            <mxPoint x="820" y="320" as="targetPoint" />
          </mxGeometry>
        </mxCell>
        <mxCell id="9gKnXBG5WcIaXHr-JRwC-7" style="edgeStyle=orthogonalEdgeStyle;rounded=0;orthogonalLoop=1;jettySize=auto;html=1;" edge="1" parent="1" source="9gKnXBG5WcIaXHr-JRwC-8" target="9gKnXBG5WcIaXHr-JRwC-22">
          <mxGeometry relative="1" as="geometry" />
        </mxCell>
        <mxCell id="9gKnXBG5WcIaXHr-JRwC-8" value="Barra de navegación" style="rounded=0;whiteSpace=wrap;html=1;" vertex="1" parent="1">
          <mxGeometry x="130" y="200" width="120" height="60" as="geometry" />
        </mxCell>
        <mxCell id="9gKnXBG5WcIaXHr-JRwC-9" style="edgeStyle=orthogonalEdgeStyle;rounded=0;orthogonalLoop=1;jettySize=auto;html=1;entryX=0;entryY=0.5;entryDx=0;entryDy=0;" edge="1" parent="1" source="9gKnXBG5WcIaXHr-JRwC-10" target="9gKnXBG5WcIaXHr-JRwC-33">
          <mxGeometry relative="1" as="geometry">
            <Array as="points">
              <mxPoint y="350" />
              <mxPoint y="120" />
            </Array>
          </mxGeometry>
        </mxCell>
        <mxCell id="9gKnXBG5WcIaXHr-JRwC-10" value="El logo (regresa a home page)" style="rounded=1;whiteSpace=wrap;html=1;" vertex="1" parent="1">
          <mxGeometry x="30" y="320" width="120" height="60" as="geometry" />
        </mxCell>
        <mxCell id="9gKnXBG5WcIaXHr-JRwC-11" value="Services (HLINK to other page)" style="rounded=1;whiteSpace=wrap;html=1;" vertex="1" parent="1">
          <mxGeometry x="170" y="320" width="120" height="60" as="geometry" />
        </mxCell>
        <mxCell id="9gKnXBG5WcIaXHr-JRwC-12" style="edgeStyle=orthogonalEdgeStyle;rounded=0;orthogonalLoop=1;jettySize=auto;html=1;entryX=0;entryY=0.5;entryDx=0;entryDy=0;" edge="1" parent="1" source="9gKnXBG5WcIaXHr-JRwC-15" target="9gKnXBG5WcIaXHr-JRwC-25">
          <mxGeometry relative="1" as="geometry" />
        </mxCell>
        <mxCell id="9gKnXBG5WcIaXHr-JRwC-13" style="edgeStyle=orthogonalEdgeStyle;rounded=0;orthogonalLoop=1;jettySize=auto;html=1;entryX=0;entryY=0.5;entryDx=0;entryDy=0;" edge="1" parent="1" source="9gKnXBG5WcIaXHr-JRwC-15" target="9gKnXBG5WcIaXHr-JRwC-26">
          <mxGeometry relative="1" as="geometry" />
        </mxCell>
        <mxCell id="9gKnXBG5WcIaXHr-JRwC-14" style="edgeStyle=orthogonalEdgeStyle;rounded=0;orthogonalLoop=1;jettySize=auto;html=1;entryX=0;entryY=0.5;entryDx=0;entryDy=0;" edge="1" parent="1" source="9gKnXBG5WcIaXHr-JRwC-15" target="9gKnXBG5WcIaXHr-JRwC-27">
          <mxGeometry relative="1" as="geometry" />
        </mxCell>
        <mxCell id="9gKnXBG5WcIaXHr-JRwC-15" value="Solutions (drop down menu)" style="rounded=1;whiteSpace=wrap;html=1;" vertex="1" parent="1">
          <mxGeometry x="320" y="320" width="120" height="60" as="geometry" />
        </mxCell>
        <mxCell id="9gKnXBG5WcIaXHr-JRwC-16" style="edgeStyle=orthogonalEdgeStyle;rounded=0;orthogonalLoop=1;jettySize=auto;html=1;entryX=0;entryY=0.5;entryDx=0;entryDy=0;" edge="1" parent="1" source="9gKnXBG5WcIaXHr-JRwC-19" target="9gKnXBG5WcIaXHr-JRwC-28">
          <mxGeometry relative="1" as="geometry" />
        </mxCell>
        <mxCell id="9gKnXBG5WcIaXHr-JRwC-17" style="edgeStyle=orthogonalEdgeStyle;rounded=0;orthogonalLoop=1;jettySize=auto;html=1;entryX=0;entryY=0.5;entryDx=0;entryDy=0;" edge="1" parent="1" source="9gKnXBG5WcIaXHr-JRwC-19" target="9gKnXBG5WcIaXHr-JRwC-29">
          <mxGeometry relative="1" as="geometry" />
        </mxCell>
        <mxCell id="9gKnXBG5WcIaXHr-JRwC-18" style="edgeStyle=orthogonalEdgeStyle;rounded=0;orthogonalLoop=1;jettySize=auto;html=1;entryX=0;entryY=0.5;entryDx=0;entryDy=0;" edge="1" parent="1" source="9gKnXBG5WcIaXHr-JRwC-19" target="9gKnXBG5WcIaXHr-JRwC-30">
          <mxGeometry relative="1" as="geometry" />
        </mxCell>
        <mxCell id="9gKnXBG5WcIaXHr-JRwC-19" value="Resources (drop down menu)" style="rounded=1;whiteSpace=wrap;html=1;" vertex="1" parent="1">
          <mxGeometry x="470" y="320" width="120" height="60" as="geometry" />
        </mxCell>
        <mxCell id="9gKnXBG5WcIaXHr-JRwC-20" value="About (HLINK to other page&lt;span style=&quot;background-color: transparent; color: light-dark(rgb(0, 0, 0), rgb(255, 255, 255));&quot;&gt;)&amp;nbsp;&lt;/span&gt;" style="rounded=1;whiteSpace=wrap;html=1;" vertex="1" parent="1">
          <mxGeometry x="680" y="310" width="120" height="60" as="geometry" />
        </mxCell>
        <mxCell id="9gKnXBG5WcIaXHr-JRwC-21" style="edgeStyle=orthogonalEdgeStyle;rounded=0;orthogonalLoop=1;jettySize=auto;html=1;entryX=0.5;entryY=0;entryDx=0;entryDy=0;" edge="1" parent="1" source="9gKnXBG5WcIaXHr-JRwC-22" target="9gKnXBG5WcIaXHr-JRwC-32">
          <mxGeometry relative="1" as="geometry" />
        </mxCell>
        <mxCell id="9gKnXBG5WcIaXHr-JRwC-22" value="Start your asssesment (Button)" style="rounded=1;whiteSpace=wrap;html=1;" vertex="1" parent="1">
          <mxGeometry x="1000" y="310" width="120" height="60" as="geometry" />
        </mxCell>
        <mxCell id="9gKnXBG5WcIaXHr-JRwC-23" style="edgeStyle=orthogonalEdgeStyle;rounded=0;orthogonalLoop=1;jettySize=auto;html=1;entryX=0.5;entryY=0;entryDx=0;entryDy=0;" edge="1" parent="1" source="9gKnXBG5WcIaXHr-JRwC-24" target="9gKnXBG5WcIaXHr-JRwC-31">
          <mxGeometry relative="1" as="geometry" />
        </mxCell>
        <mxCell id="9gKnXBG5WcIaXHr-JRwC-24" value="Contact Us (Button)" style="rounded=1;whiteSpace=wrap;html=1;" vertex="1" parent="1">
          <mxGeometry x="860" y="310" width="120" height="60" as="geometry" />
        </mxCell>
        <mxCell id="9gKnXBG5WcIaXHr-JRwC-25" value="BrightForecast™ (HLINK to other page)" style="rounded=1;whiteSpace=wrap;html=1;" vertex="1" parent="1">
          <mxGeometry x="400" y="420" width="120" height="60" as="geometry" />
        </mxCell>
        <mxCell id="9gKnXBG5WcIaXHr-JRwC-26" value="BrightRevenue™ (HLINK to other page)" style="rounded=1;whiteSpace=wrap;html=1;" vertex="1" parent="1">
          <mxGeometry x="400" y="490" width="120" height="60" as="geometry" />
        </mxCell>
        <mxCell id="9gKnXBG5WcIaXHr-JRwC-27" value="BrightPrice™ (HLINK to other page)" style="rounded=1;whiteSpace=wrap;html=1;" vertex="1" parent="1">
          <mxGeometry x="400" y="555" width="120" height="60" as="geometry" />
        </mxCell>
        <mxCell id="9gKnXBG5WcIaXHr-JRwC-28" value="AIM³ Framework (HLINK to other page)" style="rounded=1;whiteSpace=wrap;html=1;" vertex="1" parent="1">
          <mxGeometry x="550" y="420" width="120" height="60" as="geometry" />
        </mxCell>
        <mxCell id="9gKnXBG5WcIaXHr-JRwC-29" value="ROI Calculator&lt;span style=&quot;background-color: transparent; color: light-dark(rgb(0, 0, 0), rgb(255, 255, 255));&quot;&gt;&amp;nbsp;(HLINK to other page)&lt;/span&gt;" style="rounded=1;whiteSpace=wrap;html=1;" vertex="1" parent="1">
          <mxGeometry x="550" y="490" width="120" height="60" as="geometry" />
        </mxCell>
        <mxCell id="9gKnXBG5WcIaXHr-JRwC-30" value="Assestment&lt;span style=&quot;background-color: transparent; color: light-dark(rgb(0, 0, 0), rgb(255, 255, 255));&quot;&gt;&amp;nbsp;(HLINK to other page)&lt;/span&gt;" style="rounded=1;whiteSpace=wrap;html=1;" vertex="1" parent="1">
          <mxGeometry x="550" y="560" width="120" height="60" as="geometry" />
        </mxCell>
        <mxCell id="9gKnXBG5WcIaXHr-JRwC-31" value="Button calls to other page, is a contact form" style="rounded=1;whiteSpace=wrap;html=1;" vertex="1" parent="1">
          <mxGeometry x="860" y="390" width="120" height="60" as="geometry" />
        </mxCell>
        <mxCell id="9gKnXBG5WcIaXHr-JRwC-32" value="Button calls to other page" style="rounded=1;whiteSpace=wrap;html=1;" vertex="1" parent="1">
          <mxGeometry x="1000" y="390" width="120" height="60" as="geometry" />
        </mxCell>
        <mxCell id="9gKnXBG5WcIaXHr-JRwC-33" value="Homepage" style="rounded=1;whiteSpace=wrap;html=1;" vertex="1" parent="1">
          <mxGeometry x="20" y="90" width="120" height="60" as="geometry" />
        </mxCell>
        <mxCell id="9gKnXBG5WcIaXHr-JRwC-34" style="edgeStyle=orthogonalEdgeStyle;rounded=0;orthogonalLoop=1;jettySize=auto;html=1;entryX=0.5;entryY=0;entryDx=0;entryDy=0;" edge="1" parent="1" source="9gKnXBG5WcIaXHr-JRwC-36" target="9gKnXBG5WcIaXHr-JRwC-8">
          <mxGeometry relative="1" as="geometry" />
        </mxCell>
        <mxCell id="9gKnXBG5WcIaXHr-JRwC-35" style="edgeStyle=orthogonalEdgeStyle;rounded=0;orthogonalLoop=1;jettySize=auto;html=1;entryX=0.5;entryY=0;entryDx=0;entryDy=0;" edge="1" parent="1" source="9gKnXBG5WcIaXHr-JRwC-36" target="9gKnXBG5WcIaXHr-JRwC-37">
          <mxGeometry relative="1" as="geometry">
            <mxPoint x="180" y="710" as="targetPoint" />
            <Array as="points">
              <mxPoint x="230" y="170" />
              <mxPoint x="-40" y="170" />
              <mxPoint x="-40" y="630" />
              <mxPoint x="180" y="630" />
            </Array>
          </mxGeometry>
        </mxCell>
        <mxCell id="9gKnXBG5WcIaXHr-JRwC-36" value="Contact" style="rounded=1;whiteSpace=wrap;html=1;" vertex="1" parent="1">
          <mxGeometry x="170" y="90" width="120" height="60" as="geometry" />
        </mxCell>
        <mxCell id="9gKnXBG5WcIaXHr-JRwC-42" style="edgeStyle=orthogonalEdgeStyle;rounded=0;orthogonalLoop=1;jettySize=auto;html=1;entryX=0.5;entryY=0;entryDx=0;entryDy=0;" edge="1" parent="1" source="9gKnXBG5WcIaXHr-JRwC-37" target="9gKnXBG5WcIaXHr-JRwC-39">
          <mxGeometry relative="1" as="geometry" />
        </mxCell>
        <mxCell id="9gKnXBG5WcIaXHr-JRwC-43" style="edgeStyle=orthogonalEdgeStyle;rounded=0;orthogonalLoop=1;jettySize=auto;html=1;entryX=0.5;entryY=0;entryDx=0;entryDy=0;" edge="1" parent="1" source="9gKnXBG5WcIaXHr-JRwC-37" target="9gKnXBG5WcIaXHr-JRwC-41">
          <mxGeometry relative="1" as="geometry" />
        </mxCell>
        <mxCell id="9gKnXBG5WcIaXHr-JRwC-45" style="edgeStyle=orthogonalEdgeStyle;rounded=0;orthogonalLoop=1;jettySize=auto;html=1;entryX=0.5;entryY=0;entryDx=0;entryDy=0;" edge="1" parent="1" source="9gKnXBG5WcIaXHr-JRwC-37" target="9gKnXBG5WcIaXHr-JRwC-44">
          <mxGeometry relative="1" as="geometry">
            <Array as="points">
              <mxPoint x="180" y="810" />
              <mxPoint x="400" y="810" />
            </Array>
          </mxGeometry>
        </mxCell>
        <mxCell id="9gKnXBG5WcIaXHr-JRwC-37" value="Cuerpo Empieza en la página 16 (versión larga)" style="rounded=1;whiteSpace=wrap;html=1;" vertex="1" parent="1">
          <mxGeometry x="120" y="730" width="120" height="60" as="geometry" />
        </mxCell>
        <mxCell id="9gKnXBG5WcIaXHr-JRwC-39" value="Confirmation message (ejemplo pag 18)" style="rounded=1;whiteSpace=wrap;html=1;" vertex="1" parent="1">
          <mxGeometry x="200" y="830" width="120" height="60" as="geometry" />
        </mxCell>
        <mxCell id="9gKnXBG5WcIaXHr-JRwC-41" value="Form de contact&lt;div&gt;formspree (API, revisar la página por ellos)&lt;/div&gt;" style="rounded=1;whiteSpace=wrap;html=1;" vertex="1" parent="1">
          <mxGeometry x="30" y="830" width="120" height="60" as="geometry" />
        </mxCell>
        <mxCell id="9gKnXBG5WcIaXHr-JRwC-44" value="Add on de auto generar el Calendly para cuando es urgente en el form" style="rounded=1;whiteSpace=wrap;html=1;" vertex="1" parent="1">
          <mxGeometry x="340" y="830" width="120" height="60" as="geometry" />
        </mxCell>
      </root>
    </mxGraphModel>
  </diagram>
  <diagram id="i6VobgluwGqYZ9rz8VNk" name="Bright Forecast ">
    <mxGraphModel dx="2745" dy="880" grid="1" gridSize="10" guides="1" tooltips="1" connect="1" arrows="1" fold="1" page="1" pageScale="1" pageWidth="827" pageHeight="1169" math="0" shadow="0">
      <root>
        <mxCell id="0" />
        <mxCell id="1" parent="0" />
        <mxCell id="mQMZ7xYiCPRMG0VmYz34-1" style="edgeStyle=orthogonalEdgeStyle;rounded=0;orthogonalLoop=1;jettySize=auto;html=1;" edge="1" parent="1" source="mQMZ7xYiCPRMG0VmYz34-8">
          <mxGeometry relative="1" as="geometry">
            <mxPoint x="90" y="320" as="targetPoint" />
          </mxGeometry>
        </mxCell>
        <mxCell id="mQMZ7xYiCPRMG0VmYz34-2" style="edgeStyle=orthogonalEdgeStyle;rounded=0;orthogonalLoop=1;jettySize=auto;html=1;entryX=0.5;entryY=0;entryDx=0;entryDy=0;" edge="1" parent="1" source="mQMZ7xYiCPRMG0VmYz34-8" target="mQMZ7xYiCPRMG0VmYz34-11">
          <mxGeometry relative="1" as="geometry" />
        </mxCell>
        <mxCell id="mQMZ7xYiCPRMG0VmYz34-3" style="edgeStyle=orthogonalEdgeStyle;rounded=0;orthogonalLoop=1;jettySize=auto;html=1;entryX=0.5;entryY=0;entryDx=0;entryDy=0;" edge="1" parent="1" source="mQMZ7xYiCPRMG0VmYz34-8" target="mQMZ7xYiCPRMG0VmYz34-15">
          <mxGeometry relative="1" as="geometry" />
        </mxCell>
        <mxCell id="mQMZ7xYiCPRMG0VmYz34-4" style="edgeStyle=orthogonalEdgeStyle;rounded=0;orthogonalLoop=1;jettySize=auto;html=1;entryX=0.5;entryY=0;entryDx=0;entryDy=0;" edge="1" parent="1" source="mQMZ7xYiCPRMG0VmYz34-8" target="mQMZ7xYiCPRMG0VmYz34-19">
          <mxGeometry relative="1" as="geometry">
            <mxPoint x="522.2857142857143" y="320" as="targetPoint" />
          </mxGeometry>
        </mxCell>
        <mxCell id="mQMZ7xYiCPRMG0VmYz34-5" style="edgeStyle=orthogonalEdgeStyle;rounded=0;orthogonalLoop=1;jettySize=auto;html=1;entryX=0.5;entryY=0;entryDx=0;entryDy=0;" edge="1" parent="1" source="mQMZ7xYiCPRMG0VmYz34-8" target="mQMZ7xYiCPRMG0VmYz34-20">
          <mxGeometry relative="1" as="geometry" />
        </mxCell>
        <mxCell id="mQMZ7xYiCPRMG0VmYz34-6" style="edgeStyle=orthogonalEdgeStyle;rounded=0;orthogonalLoop=1;jettySize=auto;html=1;entryX=0.5;entryY=0;entryDx=0;entryDy=0;" edge="1" parent="1" source="mQMZ7xYiCPRMG0VmYz34-8" target="mQMZ7xYiCPRMG0VmYz34-24">
          <mxGeometry relative="1" as="geometry">
            <mxPoint x="820" y="320" as="targetPoint" />
          </mxGeometry>
        </mxCell>
        <mxCell id="mQMZ7xYiCPRMG0VmYz34-7" style="edgeStyle=orthogonalEdgeStyle;rounded=0;orthogonalLoop=1;jettySize=auto;html=1;" edge="1" parent="1" source="mQMZ7xYiCPRMG0VmYz34-8" target="mQMZ7xYiCPRMG0VmYz34-22">
          <mxGeometry relative="1" as="geometry" />
        </mxCell>
        <mxCell id="mQMZ7xYiCPRMG0VmYz34-8" value="Barra de navegación" style="rounded=0;whiteSpace=wrap;html=1;" vertex="1" parent="1">
          <mxGeometry x="130" y="200" width="120" height="60" as="geometry" />
        </mxCell>
        <mxCell id="mQMZ7xYiCPRMG0VmYz34-9" style="edgeStyle=orthogonalEdgeStyle;rounded=0;orthogonalLoop=1;jettySize=auto;html=1;entryX=0;entryY=0.5;entryDx=0;entryDy=0;" edge="1" parent="1" source="mQMZ7xYiCPRMG0VmYz34-10" target="mQMZ7xYiCPRMG0VmYz34-33">
          <mxGeometry relative="1" as="geometry">
            <Array as="points">
              <mxPoint y="350" />
              <mxPoint y="120" />
            </Array>
          </mxGeometry>
        </mxCell>
        <mxCell id="mQMZ7xYiCPRMG0VmYz34-10" value="El logo (regresa a home page)" style="rounded=1;whiteSpace=wrap;html=1;" vertex="1" parent="1">
          <mxGeometry x="30" y="320" width="120" height="60" as="geometry" />
        </mxCell>
        <mxCell id="mQMZ7xYiCPRMG0VmYz34-11" value="Services (HLINK to other page)" style="rounded=1;whiteSpace=wrap;html=1;" vertex="1" parent="1">
          <mxGeometry x="170" y="320" width="120" height="60" as="geometry" />
        </mxCell>
        <mxCell id="mQMZ7xYiCPRMG0VmYz34-12" style="edgeStyle=orthogonalEdgeStyle;rounded=0;orthogonalLoop=1;jettySize=auto;html=1;entryX=0;entryY=0.5;entryDx=0;entryDy=0;" edge="1" parent="1" source="mQMZ7xYiCPRMG0VmYz34-15" target="mQMZ7xYiCPRMG0VmYz34-25">
          <mxGeometry relative="1" as="geometry" />
        </mxCell>
        <mxCell id="mQMZ7xYiCPRMG0VmYz34-13" style="edgeStyle=orthogonalEdgeStyle;rounded=0;orthogonalLoop=1;jettySize=auto;html=1;entryX=0;entryY=0.5;entryDx=0;entryDy=0;" edge="1" parent="1" source="mQMZ7xYiCPRMG0VmYz34-15" target="mQMZ7xYiCPRMG0VmYz34-26">
          <mxGeometry relative="1" as="geometry" />
        </mxCell>
        <mxCell id="mQMZ7xYiCPRMG0VmYz34-14" style="edgeStyle=orthogonalEdgeStyle;rounded=0;orthogonalLoop=1;jettySize=auto;html=1;entryX=0;entryY=0.5;entryDx=0;entryDy=0;" edge="1" parent="1" source="mQMZ7xYiCPRMG0VmYz34-15" target="mQMZ7xYiCPRMG0VmYz34-27">
          <mxGeometry relative="1" as="geometry" />
        </mxCell>
        <mxCell id="mQMZ7xYiCPRMG0VmYz34-15" value="Solutions (drop down menu)" style="rounded=1;whiteSpace=wrap;html=1;" vertex="1" parent="1">
          <mxGeometry x="320" y="320" width="120" height="60" as="geometry" />
        </mxCell>
        <mxCell id="mQMZ7xYiCPRMG0VmYz34-16" style="edgeStyle=orthogonalEdgeStyle;rounded=0;orthogonalLoop=1;jettySize=auto;html=1;entryX=0;entryY=0.5;entryDx=0;entryDy=0;" edge="1" parent="1" source="mQMZ7xYiCPRMG0VmYz34-19" target="mQMZ7xYiCPRMG0VmYz34-28">
          <mxGeometry relative="1" as="geometry" />
        </mxCell>
        <mxCell id="mQMZ7xYiCPRMG0VmYz34-17" style="edgeStyle=orthogonalEdgeStyle;rounded=0;orthogonalLoop=1;jettySize=auto;html=1;entryX=0;entryY=0.5;entryDx=0;entryDy=0;" edge="1" parent="1" source="mQMZ7xYiCPRMG0VmYz34-19" target="mQMZ7xYiCPRMG0VmYz34-29">
          <mxGeometry relative="1" as="geometry" />
        </mxCell>
        <mxCell id="mQMZ7xYiCPRMG0VmYz34-18" style="edgeStyle=orthogonalEdgeStyle;rounded=0;orthogonalLoop=1;jettySize=auto;html=1;entryX=0;entryY=0.5;entryDx=0;entryDy=0;" edge="1" parent="1" source="mQMZ7xYiCPRMG0VmYz34-19" target="mQMZ7xYiCPRMG0VmYz34-30">
          <mxGeometry relative="1" as="geometry" />
        </mxCell>
        <mxCell id="mQMZ7xYiCPRMG0VmYz34-19" value="Resources (drop down menu)" style="rounded=1;whiteSpace=wrap;html=1;" vertex="1" parent="1">
          <mxGeometry x="470" y="320" width="120" height="60" as="geometry" />
        </mxCell>
        <mxCell id="mQMZ7xYiCPRMG0VmYz34-20" value="About (HLINK to other page&lt;span style=&quot;background-color: transparent; color: light-dark(rgb(0, 0, 0), rgb(255, 255, 255));&quot;&gt;)&amp;nbsp;&lt;/span&gt;" style="rounded=1;whiteSpace=wrap;html=1;" vertex="1" parent="1">
          <mxGeometry x="680" y="310" width="120" height="60" as="geometry" />
        </mxCell>
        <mxCell id="mQMZ7xYiCPRMG0VmYz34-21" style="edgeStyle=orthogonalEdgeStyle;rounded=0;orthogonalLoop=1;jettySize=auto;html=1;entryX=0.5;entryY=0;entryDx=0;entryDy=0;" edge="1" parent="1" source="mQMZ7xYiCPRMG0VmYz34-22" target="mQMZ7xYiCPRMG0VmYz34-32">
          <mxGeometry relative="1" as="geometry" />
        </mxCell>
        <mxCell id="mQMZ7xYiCPRMG0VmYz34-22" value="Start your asssesment (Button)" style="rounded=1;whiteSpace=wrap;html=1;" vertex="1" parent="1">
          <mxGeometry x="1000" y="310" width="120" height="60" as="geometry" />
        </mxCell>
        <mxCell id="mQMZ7xYiCPRMG0VmYz34-23" style="edgeStyle=orthogonalEdgeStyle;rounded=0;orthogonalLoop=1;jettySize=auto;html=1;entryX=0.5;entryY=0;entryDx=0;entryDy=0;" edge="1" parent="1" source="mQMZ7xYiCPRMG0VmYz34-24" target="mQMZ7xYiCPRMG0VmYz34-31">
          <mxGeometry relative="1" as="geometry" />
        </mxCell>
        <mxCell id="mQMZ7xYiCPRMG0VmYz34-24" value="Contact Us (Button)" style="rounded=1;whiteSpace=wrap;html=1;" vertex="1" parent="1">
          <mxGeometry x="860" y="310" width="120" height="60" as="geometry" />
        </mxCell>
        <mxCell id="mQMZ7xYiCPRMG0VmYz34-25" value="BrightForecast™ (HLINK to other page)" style="rounded=1;whiteSpace=wrap;html=1;" vertex="1" parent="1">
          <mxGeometry x="400" y="420" width="120" height="60" as="geometry" />
        </mxCell>
        <mxCell id="mQMZ7xYiCPRMG0VmYz34-26" value="BrightRevenue™ (HLINK to other page)" style="rounded=1;whiteSpace=wrap;html=1;" vertex="1" parent="1">
          <mxGeometry x="400" y="490" width="120" height="60" as="geometry" />
        </mxCell>
        <mxCell id="mQMZ7xYiCPRMG0VmYz34-27" value="BrightPrice™ (HLINK to other page)" style="rounded=1;whiteSpace=wrap;html=1;" vertex="1" parent="1">
          <mxGeometry x="400" y="555" width="120" height="60" as="geometry" />
        </mxCell>
        <mxCell id="mQMZ7xYiCPRMG0VmYz34-28" value="AIM³ Framework (HLINK to other page)" style="rounded=1;whiteSpace=wrap;html=1;" vertex="1" parent="1">
          <mxGeometry x="550" y="420" width="120" height="60" as="geometry" />
        </mxCell>
        <mxCell id="mQMZ7xYiCPRMG0VmYz34-29" value="ROI Calculator&lt;span style=&quot;background-color: transparent; color: light-dark(rgb(0, 0, 0), rgb(255, 255, 255));&quot;&gt;&amp;nbsp;(HLINK to other page)&lt;/span&gt;" style="rounded=1;whiteSpace=wrap;html=1;" vertex="1" parent="1">
          <mxGeometry x="550" y="490" width="120" height="60" as="geometry" />
        </mxCell>
        <mxCell id="mQMZ7xYiCPRMG0VmYz34-30" value="Assestment&lt;span style=&quot;background-color: transparent; color: light-dark(rgb(0, 0, 0), rgb(255, 255, 255));&quot;&gt;&amp;nbsp;(HLINK to other page)&lt;/span&gt;" style="rounded=1;whiteSpace=wrap;html=1;" vertex="1" parent="1">
          <mxGeometry x="550" y="560" width="120" height="60" as="geometry" />
        </mxCell>
        <mxCell id="mQMZ7xYiCPRMG0VmYz34-31" value="Button calls to other page, is a contact form" style="rounded=1;whiteSpace=wrap;html=1;" vertex="1" parent="1">
          <mxGeometry x="860" y="390" width="120" height="60" as="geometry" />
        </mxCell>
        <mxCell id="mQMZ7xYiCPRMG0VmYz34-32" value="Button calls to other page" style="rounded=1;whiteSpace=wrap;html=1;" vertex="1" parent="1">
          <mxGeometry x="1000" y="390" width="120" height="60" as="geometry" />
        </mxCell>
        <mxCell id="mQMZ7xYiCPRMG0VmYz34-33" value="Homepage" style="rounded=1;whiteSpace=wrap;html=1;" vertex="1" parent="1">
          <mxGeometry x="20" y="90" width="120" height="60" as="geometry" />
        </mxCell>
        <mxCell id="mQMZ7xYiCPRMG0VmYz34-34" style="edgeStyle=orthogonalEdgeStyle;rounded=0;orthogonalLoop=1;jettySize=auto;html=1;entryX=0.5;entryY=0;entryDx=0;entryDy=0;" edge="1" parent="1" source="mQMZ7xYiCPRMG0VmYz34-36" target="mQMZ7xYiCPRMG0VmYz34-8">
          <mxGeometry relative="1" as="geometry" />
        </mxCell>
        <mxCell id="mQMZ7xYiCPRMG0VmYz34-35" style="edgeStyle=orthogonalEdgeStyle;rounded=0;orthogonalLoop=1;jettySize=auto;html=1;entryX=0.5;entryY=0;entryDx=0;entryDy=0;" edge="1" parent="1" source="mQMZ7xYiCPRMG0VmYz34-36" target="mQMZ7xYiCPRMG0VmYz34-38">
          <mxGeometry relative="1" as="geometry">
            <mxPoint x="180" y="710" as="targetPoint" />
            <Array as="points">
              <mxPoint x="230" y="170" />
              <mxPoint x="-40" y="170" />
              <mxPoint x="-40" y="630" />
              <mxPoint x="180" y="630" />
            </Array>
          </mxGeometry>
        </mxCell>
        <mxCell id="mQMZ7xYiCPRMG0VmYz34-36" value="Bright Forecast" style="rounded=1;whiteSpace=wrap;html=1;" vertex="1" parent="1">
          <mxGeometry x="170" y="90" width="120" height="60" as="geometry" />
        </mxCell>
        <mxCell id="mQMZ7xYiCPRMG0VmYz34-42" style="edgeStyle=orthogonalEdgeStyle;rounded=0;orthogonalLoop=1;jettySize=auto;html=1;entryX=0;entryY=0.5;entryDx=0;entryDy=0;" edge="1" parent="1" source="mQMZ7xYiCPRMG0VmYz34-38" target="mQMZ7xYiCPRMG0VmYz34-40">
          <mxGeometry relative="1" as="geometry" />
        </mxCell>
        <mxCell id="mQMZ7xYiCPRMG0VmYz34-46" style="edgeStyle=orthogonalEdgeStyle;rounded=0;orthogonalLoop=1;jettySize=auto;html=1;entryX=0.5;entryY=0;entryDx=0;entryDy=0;" edge="1" parent="1" source="mQMZ7xYiCPRMG0VmYz34-38" target="mQMZ7xYiCPRMG0VmYz34-44">
          <mxGeometry relative="1" as="geometry" />
        </mxCell>
        <mxCell id="mQMZ7xYiCPRMG0VmYz34-38" value="Usar plantilla pag 21" style="rounded=1;whiteSpace=wrap;html=1;" vertex="1" parent="1">
          <mxGeometry x="120" y="730" width="120" height="60" as="geometry" />
        </mxCell>
        <mxCell id="mQMZ7xYiCPRMG0VmYz34-40" value="Usar la primera mitad de la Pag 21, cuando se llega a la parte de &quot;How It Works&quot; se usa la segunda mitad de la pag 20" style="shape=process;whiteSpace=wrap;html=1;backgroundOutline=1;" vertex="1" parent="1">
          <mxGeometry x="290" y="715" width="230" height="90" as="geometry" />
        </mxCell>
        <mxCell id="mQMZ7xYiCPRMG0VmYz34-43" style="edgeStyle=orthogonalEdgeStyle;rounded=0;orthogonalLoop=1;jettySize=auto;html=1;entryX=0.5;entryY=0;entryDx=0;entryDy=0;" edge="1" parent="1" source="mQMZ7xYiCPRMG0VmYz34-44" target="mQMZ7xYiCPRMG0VmYz34-45">
          <mxGeometry relative="1" as="geometry" />
        </mxCell>
        <mxCell id="mQMZ7xYiCPRMG0VmYz34-44" value="Start your asssesment (Button)" style="rounded=1;whiteSpace=wrap;html=1;" vertex="1" parent="1">
          <mxGeometry x="120" y="860" width="120" height="60" as="geometry" />
        </mxCell>
        <mxCell id="mQMZ7xYiCPRMG0VmYz34-45" value="Button calls to other page" style="rounded=1;whiteSpace=wrap;html=1;" vertex="1" parent="1">
          <mxGeometry x="120" y="940" width="120" height="60" as="geometry" />
        </mxCell>
      </root>
    </mxGraphModel>
  </diagram>
  <diagram id="BKnhm8TLo2nbIwsPYS_i" name="BrightPrice™ (revisit)">
    <mxGraphModel dx="2457" dy="748" grid="1" gridSize="10" guides="1" tooltips="1" connect="1" arrows="1" fold="1" page="1" pageScale="1" pageWidth="827" pageHeight="1169" math="0" shadow="0">
      <root>
        <mxCell id="0" />
        <mxCell id="1" parent="0" />
        <mxCell id="YxkL4xPouL-B_UYYxP1Y-1" style="edgeStyle=orthogonalEdgeStyle;rounded=0;orthogonalLoop=1;jettySize=auto;html=1;" edge="1" parent="1" source="YxkL4xPouL-B_UYYxP1Y-8">
          <mxGeometry relative="1" as="geometry">
            <mxPoint x="90" y="320" as="targetPoint" />
          </mxGeometry>
        </mxCell>
        <mxCell id="YxkL4xPouL-B_UYYxP1Y-2" style="edgeStyle=orthogonalEdgeStyle;rounded=0;orthogonalLoop=1;jettySize=auto;html=1;entryX=0.5;entryY=0;entryDx=0;entryDy=0;" edge="1" parent="1" source="YxkL4xPouL-B_UYYxP1Y-8" target="YxkL4xPouL-B_UYYxP1Y-11">
          <mxGeometry relative="1" as="geometry" />
        </mxCell>
        <mxCell id="YxkL4xPouL-B_UYYxP1Y-3" style="edgeStyle=orthogonalEdgeStyle;rounded=0;orthogonalLoop=1;jettySize=auto;html=1;entryX=0.5;entryY=0;entryDx=0;entryDy=0;" edge="1" parent="1" source="YxkL4xPouL-B_UYYxP1Y-8" target="YxkL4xPouL-B_UYYxP1Y-15">
          <mxGeometry relative="1" as="geometry" />
        </mxCell>
        <mxCell id="YxkL4xPouL-B_UYYxP1Y-4" style="edgeStyle=orthogonalEdgeStyle;rounded=0;orthogonalLoop=1;jettySize=auto;html=1;entryX=0.5;entryY=0;entryDx=0;entryDy=0;" edge="1" parent="1" source="YxkL4xPouL-B_UYYxP1Y-8" target="YxkL4xPouL-B_UYYxP1Y-19">
          <mxGeometry relative="1" as="geometry">
            <mxPoint x="522.2857142857143" y="320" as="targetPoint" />
          </mxGeometry>
        </mxCell>
        <mxCell id="YxkL4xPouL-B_UYYxP1Y-5" style="edgeStyle=orthogonalEdgeStyle;rounded=0;orthogonalLoop=1;jettySize=auto;html=1;entryX=0.5;entryY=0;entryDx=0;entryDy=0;" edge="1" parent="1" source="YxkL4xPouL-B_UYYxP1Y-8" target="YxkL4xPouL-B_UYYxP1Y-20">
          <mxGeometry relative="1" as="geometry" />
        </mxCell>
        <mxCell id="YxkL4xPouL-B_UYYxP1Y-6" style="edgeStyle=orthogonalEdgeStyle;rounded=0;orthogonalLoop=1;jettySize=auto;html=1;entryX=0.5;entryY=0;entryDx=0;entryDy=0;" edge="1" parent="1" source="YxkL4xPouL-B_UYYxP1Y-8" target="YxkL4xPouL-B_UYYxP1Y-24">
          <mxGeometry relative="1" as="geometry">
            <mxPoint x="820" y="320" as="targetPoint" />
          </mxGeometry>
        </mxCell>
        <mxCell id="YxkL4xPouL-B_UYYxP1Y-7" style="edgeStyle=orthogonalEdgeStyle;rounded=0;orthogonalLoop=1;jettySize=auto;html=1;" edge="1" parent="1" source="YxkL4xPouL-B_UYYxP1Y-8" target="YxkL4xPouL-B_UYYxP1Y-22">
          <mxGeometry relative="1" as="geometry" />
        </mxCell>
        <mxCell id="YxkL4xPouL-B_UYYxP1Y-8" value="Barra de navegación" style="rounded=0;whiteSpace=wrap;html=1;" vertex="1" parent="1">
          <mxGeometry x="130" y="200" width="120" height="60" as="geometry" />
        </mxCell>
        <mxCell id="YxkL4xPouL-B_UYYxP1Y-9" style="edgeStyle=orthogonalEdgeStyle;rounded=0;orthogonalLoop=1;jettySize=auto;html=1;entryX=0;entryY=0.5;entryDx=0;entryDy=0;" edge="1" parent="1" source="YxkL4xPouL-B_UYYxP1Y-10" target="YxkL4xPouL-B_UYYxP1Y-33">
          <mxGeometry relative="1" as="geometry">
            <Array as="points">
              <mxPoint y="350" />
              <mxPoint y="120" />
            </Array>
          </mxGeometry>
        </mxCell>
        <mxCell id="YxkL4xPouL-B_UYYxP1Y-10" value="El logo (regresa a home page)" style="rounded=1;whiteSpace=wrap;html=1;" vertex="1" parent="1">
          <mxGeometry x="30" y="320" width="120" height="60" as="geometry" />
        </mxCell>
        <mxCell id="YxkL4xPouL-B_UYYxP1Y-11" value="Services (HLINK to other page)" style="rounded=1;whiteSpace=wrap;html=1;" vertex="1" parent="1">
          <mxGeometry x="170" y="320" width="120" height="60" as="geometry" />
        </mxCell>
        <mxCell id="YxkL4xPouL-B_UYYxP1Y-12" style="edgeStyle=orthogonalEdgeStyle;rounded=0;orthogonalLoop=1;jettySize=auto;html=1;entryX=0;entryY=0.5;entryDx=0;entryDy=0;" edge="1" parent="1" source="YxkL4xPouL-B_UYYxP1Y-15" target="YxkL4xPouL-B_UYYxP1Y-25">
          <mxGeometry relative="1" as="geometry" />
        </mxCell>
        <mxCell id="YxkL4xPouL-B_UYYxP1Y-13" style="edgeStyle=orthogonalEdgeStyle;rounded=0;orthogonalLoop=1;jettySize=auto;html=1;entryX=0;entryY=0.5;entryDx=0;entryDy=0;" edge="1" parent="1" source="YxkL4xPouL-B_UYYxP1Y-15" target="YxkL4xPouL-B_UYYxP1Y-26">
          <mxGeometry relative="1" as="geometry" />
        </mxCell>
        <mxCell id="YxkL4xPouL-B_UYYxP1Y-14" style="edgeStyle=orthogonalEdgeStyle;rounded=0;orthogonalLoop=1;jettySize=auto;html=1;entryX=0;entryY=0.5;entryDx=0;entryDy=0;" edge="1" parent="1" source="YxkL4xPouL-B_UYYxP1Y-15" target="YxkL4xPouL-B_UYYxP1Y-27">
          <mxGeometry relative="1" as="geometry" />
        </mxCell>
        <mxCell id="YxkL4xPouL-B_UYYxP1Y-15" value="Solutions (drop down menu)" style="rounded=1;whiteSpace=wrap;html=1;" vertex="1" parent="1">
          <mxGeometry x="320" y="320" width="120" height="60" as="geometry" />
        </mxCell>
        <mxCell id="YxkL4xPouL-B_UYYxP1Y-16" style="edgeStyle=orthogonalEdgeStyle;rounded=0;orthogonalLoop=1;jettySize=auto;html=1;entryX=0;entryY=0.5;entryDx=0;entryDy=0;" edge="1" parent="1" source="YxkL4xPouL-B_UYYxP1Y-19" target="YxkL4xPouL-B_UYYxP1Y-28">
          <mxGeometry relative="1" as="geometry" />
        </mxCell>
        <mxCell id="YxkL4xPouL-B_UYYxP1Y-17" style="edgeStyle=orthogonalEdgeStyle;rounded=0;orthogonalLoop=1;jettySize=auto;html=1;entryX=0;entryY=0.5;entryDx=0;entryDy=0;" edge="1" parent="1" source="YxkL4xPouL-B_UYYxP1Y-19" target="YxkL4xPouL-B_UYYxP1Y-29">
          <mxGeometry relative="1" as="geometry" />
        </mxCell>
        <mxCell id="YxkL4xPouL-B_UYYxP1Y-18" style="edgeStyle=orthogonalEdgeStyle;rounded=0;orthogonalLoop=1;jettySize=auto;html=1;entryX=0;entryY=0.5;entryDx=0;entryDy=0;" edge="1" parent="1" source="YxkL4xPouL-B_UYYxP1Y-19" target="YxkL4xPouL-B_UYYxP1Y-30">
          <mxGeometry relative="1" as="geometry" />
        </mxCell>
        <mxCell id="YxkL4xPouL-B_UYYxP1Y-19" value="Resources (drop down menu)" style="rounded=1;whiteSpace=wrap;html=1;" vertex="1" parent="1">
          <mxGeometry x="470" y="320" width="120" height="60" as="geometry" />
        </mxCell>
        <mxCell id="YxkL4xPouL-B_UYYxP1Y-20" value="About (HLINK to other page&lt;span style=&quot;background-color: transparent; color: light-dark(rgb(0, 0, 0), rgb(255, 255, 255));&quot;&gt;)&amp;nbsp;&lt;/span&gt;" style="rounded=1;whiteSpace=wrap;html=1;" vertex="1" parent="1">
          <mxGeometry x="680" y="310" width="120" height="60" as="geometry" />
        </mxCell>
        <mxCell id="YxkL4xPouL-B_UYYxP1Y-21" style="edgeStyle=orthogonalEdgeStyle;rounded=0;orthogonalLoop=1;jettySize=auto;html=1;entryX=0.5;entryY=0;entryDx=0;entryDy=0;" edge="1" parent="1" source="YxkL4xPouL-B_UYYxP1Y-22" target="YxkL4xPouL-B_UYYxP1Y-32">
          <mxGeometry relative="1" as="geometry" />
        </mxCell>
        <mxCell id="YxkL4xPouL-B_UYYxP1Y-22" value="Start your asssesment (Button)" style="rounded=1;whiteSpace=wrap;html=1;" vertex="1" parent="1">
          <mxGeometry x="1000" y="310" width="120" height="60" as="geometry" />
        </mxCell>
        <mxCell id="YxkL4xPouL-B_UYYxP1Y-23" style="edgeStyle=orthogonalEdgeStyle;rounded=0;orthogonalLoop=1;jettySize=auto;html=1;entryX=0.5;entryY=0;entryDx=0;entryDy=0;" edge="1" parent="1" source="YxkL4xPouL-B_UYYxP1Y-24" target="YxkL4xPouL-B_UYYxP1Y-31">
          <mxGeometry relative="1" as="geometry" />
        </mxCell>
        <mxCell id="YxkL4xPouL-B_UYYxP1Y-24" value="Contact Us (Button)" style="rounded=1;whiteSpace=wrap;html=1;" vertex="1" parent="1">
          <mxGeometry x="860" y="310" width="120" height="60" as="geometry" />
        </mxCell>
        <mxCell id="YxkL4xPouL-B_UYYxP1Y-25" value="BrightForecast™ (HLINK to other page)" style="rounded=1;whiteSpace=wrap;html=1;" vertex="1" parent="1">
          <mxGeometry x="400" y="420" width="120" height="60" as="geometry" />
        </mxCell>
        <mxCell id="YxkL4xPouL-B_UYYxP1Y-26" value="BrightRevenue™ (HLINK to other page)" style="rounded=1;whiteSpace=wrap;html=1;" vertex="1" parent="1">
          <mxGeometry x="400" y="490" width="120" height="60" as="geometry" />
        </mxCell>
        <mxCell id="YxkL4xPouL-B_UYYxP1Y-27" value="BrightPrice™ (HLINK to other page)" style="rounded=1;whiteSpace=wrap;html=1;" vertex="1" parent="1">
          <mxGeometry x="400" y="555" width="120" height="60" as="geometry" />
        </mxCell>
        <mxCell id="YxkL4xPouL-B_UYYxP1Y-28" value="AIM³ Framework (HLINK to other page)" style="rounded=1;whiteSpace=wrap;html=1;" vertex="1" parent="1">
          <mxGeometry x="550" y="420" width="120" height="60" as="geometry" />
        </mxCell>
        <mxCell id="YxkL4xPouL-B_UYYxP1Y-29" value="ROI Calculator&lt;span style=&quot;background-color: transparent; color: light-dark(rgb(0, 0, 0), rgb(255, 255, 255));&quot;&gt;&amp;nbsp;(HLINK to other page)&lt;/span&gt;" style="rounded=1;whiteSpace=wrap;html=1;" vertex="1" parent="1">
          <mxGeometry x="550" y="490" width="120" height="60" as="geometry" />
        </mxCell>
        <mxCell id="YxkL4xPouL-B_UYYxP1Y-30" value="Assestment&lt;span style=&quot;background-color: transparent; color: light-dark(rgb(0, 0, 0), rgb(255, 255, 255));&quot;&gt;&amp;nbsp;(HLINK to other page)&lt;/span&gt;" style="rounded=1;whiteSpace=wrap;html=1;" vertex="1" parent="1">
          <mxGeometry x="550" y="560" width="120" height="60" as="geometry" />
        </mxCell>
        <mxCell id="YxkL4xPouL-B_UYYxP1Y-31" value="Button calls to other page, is a contact form" style="rounded=1;whiteSpace=wrap;html=1;" vertex="1" parent="1">
          <mxGeometry x="860" y="390" width="120" height="60" as="geometry" />
        </mxCell>
        <mxCell id="YxkL4xPouL-B_UYYxP1Y-32" value="Button calls to other page" style="rounded=1;whiteSpace=wrap;html=1;" vertex="1" parent="1">
          <mxGeometry x="1000" y="390" width="120" height="60" as="geometry" />
        </mxCell>
        <mxCell id="YxkL4xPouL-B_UYYxP1Y-33" value="Homepage" style="rounded=1;whiteSpace=wrap;html=1;" vertex="1" parent="1">
          <mxGeometry x="20" y="90" width="120" height="60" as="geometry" />
        </mxCell>
        <mxCell id="YxkL4xPouL-B_UYYxP1Y-34" style="edgeStyle=orthogonalEdgeStyle;rounded=0;orthogonalLoop=1;jettySize=auto;html=1;entryX=0.5;entryY=0;entryDx=0;entryDy=0;" edge="1" parent="1" source="YxkL4xPouL-B_UYYxP1Y-36" target="YxkL4xPouL-B_UYYxP1Y-8">
          <mxGeometry relative="1" as="geometry" />
        </mxCell>
        <mxCell id="YxkL4xPouL-B_UYYxP1Y-35" style="edgeStyle=orthogonalEdgeStyle;rounded=0;orthogonalLoop=1;jettySize=auto;html=1;entryX=0.5;entryY=0;entryDx=0;entryDy=0;" edge="1" parent="1" source="YxkL4xPouL-B_UYYxP1Y-36" target="YxkL4xPouL-B_UYYxP1Y-38">
          <mxGeometry relative="1" as="geometry">
            <mxPoint x="180" y="710" as="targetPoint" />
            <Array as="points">
              <mxPoint x="230" y="170" />
              <mxPoint x="-40" y="170" />
              <mxPoint x="-40" y="630" />
              <mxPoint x="180" y="630" />
            </Array>
          </mxGeometry>
        </mxCell>
        <mxCell id="YxkL4xPouL-B_UYYxP1Y-36" value="BrightPrice™" style="rounded=1;whiteSpace=wrap;html=1;" vertex="1" parent="1">
          <mxGeometry x="170" y="90" width="120" height="60" as="geometry" />
        </mxCell>
        <mxCell id="lpheLyy9uPYqjmeOYvvg-4" style="edgeStyle=orthogonalEdgeStyle;rounded=0;orthogonalLoop=1;jettySize=auto;html=1;entryX=0.5;entryY=0;entryDx=0;entryDy=0;" edge="1" parent="1" source="YxkL4xPouL-B_UYYxP1Y-38" target="lpheLyy9uPYqjmeOYvvg-2">
          <mxGeometry relative="1" as="geometry" />
        </mxCell>
        <mxCell id="YxkL4xPouL-B_UYYxP1Y-38" value="Contenido en página 26" style="rounded=1;whiteSpace=wrap;html=1;" vertex="1" parent="1">
          <mxGeometry x="120" y="730" width="120" height="60" as="geometry" />
        </mxCell>
        <mxCell id="lpheLyy9uPYqjmeOYvvg-1" style="edgeStyle=orthogonalEdgeStyle;rounded=0;orthogonalLoop=1;jettySize=auto;html=1;entryX=0.5;entryY=0;entryDx=0;entryDy=0;" edge="1" parent="1" source="lpheLyy9uPYqjmeOYvvg-2" target="lpheLyy9uPYqjmeOYvvg-3">
          <mxGeometry relative="1" as="geometry" />
        </mxCell>
        <mxCell id="lpheLyy9uPYqjmeOYvvg-2" value="Start your asssesment (Button)" style="rounded=1;whiteSpace=wrap;html=1;" vertex="1" parent="1">
          <mxGeometry x="120" y="840" width="120" height="60" as="geometry" />
        </mxCell>
        <mxCell id="lpheLyy9uPYqjmeOYvvg-3" value="Button calls to other page" style="rounded=1;whiteSpace=wrap;html=1;" vertex="1" parent="1">
          <mxGeometry x="120" y="920" width="120" height="60" as="geometry" />
        </mxCell>
      </root>
    </mxGraphModel>
  </diagram>
  <diagram id="yAcsMttQXyypjKFOtDok" name="BrightRevenue (Revisit)">
    <mxGraphModel dx="2457" dy="748" grid="1" gridSize="10" guides="1" tooltips="1" connect="1" arrows="1" fold="1" page="1" pageScale="1" pageWidth="827" pageHeight="1169" math="0" shadow="0">
      <root>
        <mxCell id="0" />
        <mxCell id="1" parent="0" />
        <mxCell id="kpT7jmInhXeZt1HA3eej-1" style="edgeStyle=orthogonalEdgeStyle;rounded=0;orthogonalLoop=1;jettySize=auto;html=1;" edge="1" parent="1" source="kpT7jmInhXeZt1HA3eej-8">
          <mxGeometry relative="1" as="geometry">
            <mxPoint x="90" y="320" as="targetPoint" />
          </mxGeometry>
        </mxCell>
        <mxCell id="kpT7jmInhXeZt1HA3eej-2" style="edgeStyle=orthogonalEdgeStyle;rounded=0;orthogonalLoop=1;jettySize=auto;html=1;entryX=0.5;entryY=0;entryDx=0;entryDy=0;" edge="1" parent="1" source="kpT7jmInhXeZt1HA3eej-8" target="kpT7jmInhXeZt1HA3eej-11">
          <mxGeometry relative="1" as="geometry" />
        </mxCell>
        <mxCell id="kpT7jmInhXeZt1HA3eej-3" style="edgeStyle=orthogonalEdgeStyle;rounded=0;orthogonalLoop=1;jettySize=auto;html=1;entryX=0.5;entryY=0;entryDx=0;entryDy=0;" edge="1" parent="1" source="kpT7jmInhXeZt1HA3eej-8" target="kpT7jmInhXeZt1HA3eej-15">
          <mxGeometry relative="1" as="geometry" />
        </mxCell>
        <mxCell id="kpT7jmInhXeZt1HA3eej-4" style="edgeStyle=orthogonalEdgeStyle;rounded=0;orthogonalLoop=1;jettySize=auto;html=1;entryX=0.5;entryY=0;entryDx=0;entryDy=0;" edge="1" parent="1" source="kpT7jmInhXeZt1HA3eej-8" target="kpT7jmInhXeZt1HA3eej-19">
          <mxGeometry relative="1" as="geometry">
            <mxPoint x="522.2857142857143" y="320" as="targetPoint" />
          </mxGeometry>
        </mxCell>
        <mxCell id="kpT7jmInhXeZt1HA3eej-5" style="edgeStyle=orthogonalEdgeStyle;rounded=0;orthogonalLoop=1;jettySize=auto;html=1;entryX=0.5;entryY=0;entryDx=0;entryDy=0;" edge="1" parent="1" source="kpT7jmInhXeZt1HA3eej-8" target="kpT7jmInhXeZt1HA3eej-20">
          <mxGeometry relative="1" as="geometry" />
        </mxCell>
        <mxCell id="kpT7jmInhXeZt1HA3eej-6" style="edgeStyle=orthogonalEdgeStyle;rounded=0;orthogonalLoop=1;jettySize=auto;html=1;entryX=0.5;entryY=0;entryDx=0;entryDy=0;" edge="1" parent="1" source="kpT7jmInhXeZt1HA3eej-8" target="kpT7jmInhXeZt1HA3eej-24">
          <mxGeometry relative="1" as="geometry">
            <mxPoint x="820" y="320" as="targetPoint" />
          </mxGeometry>
        </mxCell>
        <mxCell id="kpT7jmInhXeZt1HA3eej-7" style="edgeStyle=orthogonalEdgeStyle;rounded=0;orthogonalLoop=1;jettySize=auto;html=1;" edge="1" parent="1" source="kpT7jmInhXeZt1HA3eej-8" target="kpT7jmInhXeZt1HA3eej-22">
          <mxGeometry relative="1" as="geometry" />
        </mxCell>
        <mxCell id="kpT7jmInhXeZt1HA3eej-8" value="Barra de navegación" style="rounded=0;whiteSpace=wrap;html=1;" vertex="1" parent="1">
          <mxGeometry x="130" y="200" width="120" height="60" as="geometry" />
        </mxCell>
        <mxCell id="kpT7jmInhXeZt1HA3eej-9" style="edgeStyle=orthogonalEdgeStyle;rounded=0;orthogonalLoop=1;jettySize=auto;html=1;entryX=0;entryY=0.5;entryDx=0;entryDy=0;" edge="1" parent="1" source="kpT7jmInhXeZt1HA3eej-10" target="kpT7jmInhXeZt1HA3eej-33">
          <mxGeometry relative="1" as="geometry">
            <Array as="points">
              <mxPoint y="350" />
              <mxPoint y="120" />
            </Array>
          </mxGeometry>
        </mxCell>
        <mxCell id="kpT7jmInhXeZt1HA3eej-10" value="El logo (regresa a home page)" style="rounded=1;whiteSpace=wrap;html=1;" vertex="1" parent="1">
          <mxGeometry x="30" y="320" width="120" height="60" as="geometry" />
        </mxCell>
        <mxCell id="kpT7jmInhXeZt1HA3eej-11" value="Services (HLINK to other page)" style="rounded=1;whiteSpace=wrap;html=1;" vertex="1" parent="1">
          <mxGeometry x="170" y="320" width="120" height="60" as="geometry" />
        </mxCell>
        <mxCell id="kpT7jmInhXeZt1HA3eej-12" style="edgeStyle=orthogonalEdgeStyle;rounded=0;orthogonalLoop=1;jettySize=auto;html=1;entryX=0;entryY=0.5;entryDx=0;entryDy=0;" edge="1" parent="1" source="kpT7jmInhXeZt1HA3eej-15" target="kpT7jmInhXeZt1HA3eej-25">
          <mxGeometry relative="1" as="geometry" />
        </mxCell>
        <mxCell id="kpT7jmInhXeZt1HA3eej-13" style="edgeStyle=orthogonalEdgeStyle;rounded=0;orthogonalLoop=1;jettySize=auto;html=1;entryX=0;entryY=0.5;entryDx=0;entryDy=0;" edge="1" parent="1" source="kpT7jmInhXeZt1HA3eej-15" target="kpT7jmInhXeZt1HA3eej-26">
          <mxGeometry relative="1" as="geometry" />
        </mxCell>
        <mxCell id="kpT7jmInhXeZt1HA3eej-14" style="edgeStyle=orthogonalEdgeStyle;rounded=0;orthogonalLoop=1;jettySize=auto;html=1;entryX=0;entryY=0.5;entryDx=0;entryDy=0;" edge="1" parent="1" source="kpT7jmInhXeZt1HA3eej-15" target="kpT7jmInhXeZt1HA3eej-27">
          <mxGeometry relative="1" as="geometry" />
        </mxCell>
        <mxCell id="kpT7jmInhXeZt1HA3eej-15" value="Solutions (drop down menu)" style="rounded=1;whiteSpace=wrap;html=1;" vertex="1" parent="1">
          <mxGeometry x="320" y="320" width="120" height="60" as="geometry" />
        </mxCell>
        <mxCell id="kpT7jmInhXeZt1HA3eej-16" style="edgeStyle=orthogonalEdgeStyle;rounded=0;orthogonalLoop=1;jettySize=auto;html=1;entryX=0;entryY=0.5;entryDx=0;entryDy=0;" edge="1" parent="1" source="kpT7jmInhXeZt1HA3eej-19" target="kpT7jmInhXeZt1HA3eej-28">
          <mxGeometry relative="1" as="geometry" />
        </mxCell>
        <mxCell id="kpT7jmInhXeZt1HA3eej-17" style="edgeStyle=orthogonalEdgeStyle;rounded=0;orthogonalLoop=1;jettySize=auto;html=1;entryX=0;entryY=0.5;entryDx=0;entryDy=0;" edge="1" parent="1" source="kpT7jmInhXeZt1HA3eej-19" target="kpT7jmInhXeZt1HA3eej-29">
          <mxGeometry relative="1" as="geometry" />
        </mxCell>
        <mxCell id="kpT7jmInhXeZt1HA3eej-18" style="edgeStyle=orthogonalEdgeStyle;rounded=0;orthogonalLoop=1;jettySize=auto;html=1;entryX=0;entryY=0.5;entryDx=0;entryDy=0;" edge="1" parent="1" source="kpT7jmInhXeZt1HA3eej-19" target="kpT7jmInhXeZt1HA3eej-30">
          <mxGeometry relative="1" as="geometry" />
        </mxCell>
        <mxCell id="kpT7jmInhXeZt1HA3eej-19" value="Resources (drop down menu)" style="rounded=1;whiteSpace=wrap;html=1;" vertex="1" parent="1">
          <mxGeometry x="470" y="320" width="120" height="60" as="geometry" />
        </mxCell>
        <mxCell id="kpT7jmInhXeZt1HA3eej-20" value="About (HLINK to other page&lt;span style=&quot;background-color: transparent; color: light-dark(rgb(0, 0, 0), rgb(255, 255, 255));&quot;&gt;)&amp;nbsp;&lt;/span&gt;" style="rounded=1;whiteSpace=wrap;html=1;" vertex="1" parent="1">
          <mxGeometry x="680" y="310" width="120" height="60" as="geometry" />
        </mxCell>
        <mxCell id="kpT7jmInhXeZt1HA3eej-21" style="edgeStyle=orthogonalEdgeStyle;rounded=0;orthogonalLoop=1;jettySize=auto;html=1;entryX=0.5;entryY=0;entryDx=0;entryDy=0;" edge="1" parent="1" source="kpT7jmInhXeZt1HA3eej-22" target="kpT7jmInhXeZt1HA3eej-32">
          <mxGeometry relative="1" as="geometry" />
        </mxCell>
        <mxCell id="kpT7jmInhXeZt1HA3eej-22" value="Start your asssesment (Button)" style="rounded=1;whiteSpace=wrap;html=1;" vertex="1" parent="1">
          <mxGeometry x="1000" y="310" width="120" height="60" as="geometry" />
        </mxCell>
        <mxCell id="kpT7jmInhXeZt1HA3eej-23" style="edgeStyle=orthogonalEdgeStyle;rounded=0;orthogonalLoop=1;jettySize=auto;html=1;entryX=0.5;entryY=0;entryDx=0;entryDy=0;" edge="1" parent="1" source="kpT7jmInhXeZt1HA3eej-24" target="kpT7jmInhXeZt1HA3eej-31">
          <mxGeometry relative="1" as="geometry" />
        </mxCell>
        <mxCell id="kpT7jmInhXeZt1HA3eej-24" value="Contact Us (Button)" style="rounded=1;whiteSpace=wrap;html=1;" vertex="1" parent="1">
          <mxGeometry x="860" y="310" width="120" height="60" as="geometry" />
        </mxCell>
        <mxCell id="kpT7jmInhXeZt1HA3eej-25" value="BrightForecast™ (HLINK to other page)" style="rounded=1;whiteSpace=wrap;html=1;" vertex="1" parent="1">
          <mxGeometry x="400" y="420" width="120" height="60" as="geometry" />
        </mxCell>
        <mxCell id="kpT7jmInhXeZt1HA3eej-26" value="BrightRevenue™ (HLINK to other page)" style="rounded=1;whiteSpace=wrap;html=1;" vertex="1" parent="1">
          <mxGeometry x="400" y="490" width="120" height="60" as="geometry" />
        </mxCell>
        <mxCell id="kpT7jmInhXeZt1HA3eej-27" value="BrightPrice™ (HLINK to other page)" style="rounded=1;whiteSpace=wrap;html=1;" vertex="1" parent="1">
          <mxGeometry x="400" y="555" width="120" height="60" as="geometry" />
        </mxCell>
        <mxCell id="kpT7jmInhXeZt1HA3eej-28" value="AIM³ Framework (HLINK to other page)" style="rounded=1;whiteSpace=wrap;html=1;" vertex="1" parent="1">
          <mxGeometry x="550" y="420" width="120" height="60" as="geometry" />
        </mxCell>
        <mxCell id="kpT7jmInhXeZt1HA3eej-29" value="ROI Calculator&lt;span style=&quot;background-color: transparent; color: light-dark(rgb(0, 0, 0), rgb(255, 255, 255));&quot;&gt;&amp;nbsp;(HLINK to other page)&lt;/span&gt;" style="rounded=1;whiteSpace=wrap;html=1;" vertex="1" parent="1">
          <mxGeometry x="550" y="490" width="120" height="60" as="geometry" />
        </mxCell>
        <mxCell id="kpT7jmInhXeZt1HA3eej-30" value="Assestment&lt;span style=&quot;background-color: transparent; color: light-dark(rgb(0, 0, 0), rgb(255, 255, 255));&quot;&gt;&amp;nbsp;(HLINK to other page)&lt;/span&gt;" style="rounded=1;whiteSpace=wrap;html=1;" vertex="1" parent="1">
          <mxGeometry x="550" y="560" width="120" height="60" as="geometry" />
        </mxCell>
        <mxCell id="kpT7jmInhXeZt1HA3eej-31" value="Button calls to other page, is a contact form" style="rounded=1;whiteSpace=wrap;html=1;" vertex="1" parent="1">
          <mxGeometry x="860" y="390" width="120" height="60" as="geometry" />
        </mxCell>
        <mxCell id="kpT7jmInhXeZt1HA3eej-32" value="Button calls to other page" style="rounded=1;whiteSpace=wrap;html=1;" vertex="1" parent="1">
          <mxGeometry x="1000" y="390" width="120" height="60" as="geometry" />
        </mxCell>
        <mxCell id="kpT7jmInhXeZt1HA3eej-33" value="Homepage" style="rounded=1;whiteSpace=wrap;html=1;" vertex="1" parent="1">
          <mxGeometry x="20" y="90" width="120" height="60" as="geometry" />
        </mxCell>
        <mxCell id="kpT7jmInhXeZt1HA3eej-34" style="edgeStyle=orthogonalEdgeStyle;rounded=0;orthogonalLoop=1;jettySize=auto;html=1;entryX=0.5;entryY=0;entryDx=0;entryDy=0;" edge="1" parent="1" source="kpT7jmInhXeZt1HA3eej-36" target="kpT7jmInhXeZt1HA3eej-8">
          <mxGeometry relative="1" as="geometry" />
        </mxCell>
        <mxCell id="kpT7jmInhXeZt1HA3eej-35" style="edgeStyle=orthogonalEdgeStyle;rounded=0;orthogonalLoop=1;jettySize=auto;html=1;entryX=0.5;entryY=0;entryDx=0;entryDy=0;" edge="1" parent="1" source="kpT7jmInhXeZt1HA3eej-36" target="kpT7jmInhXeZt1HA3eej-37">
          <mxGeometry relative="1" as="geometry">
            <mxPoint x="180" y="710" as="targetPoint" />
            <Array as="points">
              <mxPoint x="230" y="170" />
              <mxPoint x="-40" y="170" />
              <mxPoint x="-40" y="630" />
              <mxPoint x="180" y="630" />
            </Array>
          </mxGeometry>
        </mxCell>
        <mxCell id="kpT7jmInhXeZt1HA3eej-36" value="BrightRevenue" style="rounded=1;whiteSpace=wrap;html=1;" vertex="1" parent="1">
          <mxGeometry x="170" y="90" width="120" height="60" as="geometry" />
        </mxCell>
        <mxCell id="kpT7jmInhXeZt1HA3eej-39" style="edgeStyle=orthogonalEdgeStyle;rounded=0;orthogonalLoop=1;jettySize=auto;html=1;entryX=0;entryY=0.5;entryDx=0;entryDy=0;" edge="1" parent="1" source="kpT7jmInhXeZt1HA3eej-37" target="kpT7jmInhXeZt1HA3eej-38">
          <mxGeometry relative="1" as="geometry" />
        </mxCell>
        <mxCell id="Qur4QilAPFv434G_E46W-4" style="edgeStyle=orthogonalEdgeStyle;rounded=0;orthogonalLoop=1;jettySize=auto;html=1;entryX=0.5;entryY=0;entryDx=0;entryDy=0;" edge="1" parent="1" source="kpT7jmInhXeZt1HA3eej-37" target="Qur4QilAPFv434G_E46W-2">
          <mxGeometry relative="1" as="geometry" />
        </mxCell>
        <mxCell id="kpT7jmInhXeZt1HA3eej-37" value="Cuerpo Empieza en la página 24" style="rounded=1;whiteSpace=wrap;html=1;" vertex="1" parent="1">
          <mxGeometry x="120" y="730" width="120" height="60" as="geometry" />
        </mxCell>
        <mxCell id="kpT7jmInhXeZt1HA3eej-38" value="Mockups de como debe verse en pag 22, 23 y 24" style="shape=process;whiteSpace=wrap;html=1;backgroundOutline=1;" vertex="1" parent="1">
          <mxGeometry x="280" y="730" width="120" height="60" as="geometry" />
        </mxCell>
        <mxCell id="Qur4QilAPFv434G_E46W-1" style="edgeStyle=orthogonalEdgeStyle;rounded=0;orthogonalLoop=1;jettySize=auto;html=1;entryX=0.5;entryY=0;entryDx=0;entryDy=0;" edge="1" parent="1" source="Qur4QilAPFv434G_E46W-2" target="Qur4QilAPFv434G_E46W-3">
          <mxGeometry relative="1" as="geometry" />
        </mxCell>
        <mxCell id="Qur4QilAPFv434G_E46W-2" value="Start your asssesment (Button)" style="rounded=1;whiteSpace=wrap;html=1;" vertex="1" parent="1">
          <mxGeometry x="120" y="860" width="120" height="60" as="geometry" />
        </mxCell>
        <mxCell id="Qur4QilAPFv434G_E46W-3" value="Button calls to other page" style="rounded=1;whiteSpace=wrap;html=1;" vertex="1" parent="1">
          <mxGeometry x="120" y="940" width="120" height="60" as="geometry" />
        </mxCell>
      </root>
    </mxGraphModel>
  </diagram>
  <diagram id="RRm9aS817isVa-dvdkfl" name="AIM³ Framework (revisit)">
    <mxGraphModel dx="2131" dy="598" grid="1" gridSize="10" guides="1" tooltips="1" connect="1" arrows="1" fold="1" page="1" pageScale="1" pageWidth="827" pageHeight="1169" math="0" shadow="0">
      <root>
        <mxCell id="0" />
        <mxCell id="1" parent="0" />
        <mxCell id="U9ZqlwwJwdOJ-Xsd3EEK-1" style="edgeStyle=orthogonalEdgeStyle;rounded=0;orthogonalLoop=1;jettySize=auto;html=1;" edge="1" parent="1" source="U9ZqlwwJwdOJ-Xsd3EEK-8">
          <mxGeometry relative="1" as="geometry">
            <mxPoint x="90" y="320" as="targetPoint" />
          </mxGeometry>
        </mxCell>
        <mxCell id="U9ZqlwwJwdOJ-Xsd3EEK-2" style="edgeStyle=orthogonalEdgeStyle;rounded=0;orthogonalLoop=1;jettySize=auto;html=1;entryX=0.5;entryY=0;entryDx=0;entryDy=0;" edge="1" parent="1" source="U9ZqlwwJwdOJ-Xsd3EEK-8" target="U9ZqlwwJwdOJ-Xsd3EEK-10">
          <mxGeometry relative="1" as="geometry" />
        </mxCell>
        <mxCell id="U9ZqlwwJwdOJ-Xsd3EEK-3" style="edgeStyle=orthogonalEdgeStyle;rounded=0;orthogonalLoop=1;jettySize=auto;html=1;entryX=0.5;entryY=0;entryDx=0;entryDy=0;" edge="1" parent="1" source="U9ZqlwwJwdOJ-Xsd3EEK-8" target="U9ZqlwwJwdOJ-Xsd3EEK-14">
          <mxGeometry relative="1" as="geometry" />
        </mxCell>
        <mxCell id="U9ZqlwwJwdOJ-Xsd3EEK-4" style="edgeStyle=orthogonalEdgeStyle;rounded=0;orthogonalLoop=1;jettySize=auto;html=1;entryX=0.5;entryY=0;entryDx=0;entryDy=0;" edge="1" parent="1" source="U9ZqlwwJwdOJ-Xsd3EEK-8" target="U9ZqlwwJwdOJ-Xsd3EEK-18">
          <mxGeometry relative="1" as="geometry">
            <mxPoint x="522.2857142857143" y="320" as="targetPoint" />
          </mxGeometry>
        </mxCell>
        <mxCell id="U9ZqlwwJwdOJ-Xsd3EEK-5" style="edgeStyle=orthogonalEdgeStyle;rounded=0;orthogonalLoop=1;jettySize=auto;html=1;entryX=0.5;entryY=0;entryDx=0;entryDy=0;" edge="1" parent="1" source="U9ZqlwwJwdOJ-Xsd3EEK-8" target="U9ZqlwwJwdOJ-Xsd3EEK-19">
          <mxGeometry relative="1" as="geometry" />
        </mxCell>
        <mxCell id="U9ZqlwwJwdOJ-Xsd3EEK-6" style="edgeStyle=orthogonalEdgeStyle;rounded=0;orthogonalLoop=1;jettySize=auto;html=1;entryX=0.5;entryY=0;entryDx=0;entryDy=0;" edge="1" parent="1" source="U9ZqlwwJwdOJ-Xsd3EEK-8" target="U9ZqlwwJwdOJ-Xsd3EEK-23">
          <mxGeometry relative="1" as="geometry">
            <mxPoint x="820" y="320" as="targetPoint" />
          </mxGeometry>
        </mxCell>
        <mxCell id="U9ZqlwwJwdOJ-Xsd3EEK-7" style="edgeStyle=orthogonalEdgeStyle;rounded=0;orthogonalLoop=1;jettySize=auto;html=1;" edge="1" parent="1" source="U9ZqlwwJwdOJ-Xsd3EEK-8" target="U9ZqlwwJwdOJ-Xsd3EEK-21">
          <mxGeometry relative="1" as="geometry" />
        </mxCell>
        <mxCell id="U9ZqlwwJwdOJ-Xsd3EEK-8" value="Barra de navegación" style="rounded=0;whiteSpace=wrap;html=1;" vertex="1" parent="1">
          <mxGeometry x="130" y="200" width="120" height="60" as="geometry" />
        </mxCell>
        <mxCell id="-sBo_Sa4EBixbXjN8lGd-2" style="edgeStyle=orthogonalEdgeStyle;rounded=0;orthogonalLoop=1;jettySize=auto;html=1;entryX=0;entryY=0.5;entryDx=0;entryDy=0;" edge="1" parent="1" source="U9ZqlwwJwdOJ-Xsd3EEK-9" target="-sBo_Sa4EBixbXjN8lGd-1">
          <mxGeometry relative="1" as="geometry">
            <Array as="points">
              <mxPoint y="350" />
              <mxPoint y="120" />
            </Array>
          </mxGeometry>
        </mxCell>
        <mxCell id="U9ZqlwwJwdOJ-Xsd3EEK-9" value="El logo (regresa a home page)" style="rounded=1;whiteSpace=wrap;html=1;" vertex="1" parent="1">
          <mxGeometry x="30" y="320" width="120" height="60" as="geometry" />
        </mxCell>
        <mxCell id="U9ZqlwwJwdOJ-Xsd3EEK-10" value="Services (HLINK to other page)" style="rounded=1;whiteSpace=wrap;html=1;" vertex="1" parent="1">
          <mxGeometry x="170" y="320" width="120" height="60" as="geometry" />
        </mxCell>
        <mxCell id="U9ZqlwwJwdOJ-Xsd3EEK-11" style="edgeStyle=orthogonalEdgeStyle;rounded=0;orthogonalLoop=1;jettySize=auto;html=1;entryX=0;entryY=0.5;entryDx=0;entryDy=0;" edge="1" parent="1" source="U9ZqlwwJwdOJ-Xsd3EEK-14" target="U9ZqlwwJwdOJ-Xsd3EEK-24">
          <mxGeometry relative="1" as="geometry" />
        </mxCell>
        <mxCell id="U9ZqlwwJwdOJ-Xsd3EEK-12" style="edgeStyle=orthogonalEdgeStyle;rounded=0;orthogonalLoop=1;jettySize=auto;html=1;entryX=0;entryY=0.5;entryDx=0;entryDy=0;" edge="1" parent="1" source="U9ZqlwwJwdOJ-Xsd3EEK-14" target="U9ZqlwwJwdOJ-Xsd3EEK-25">
          <mxGeometry relative="1" as="geometry" />
        </mxCell>
        <mxCell id="U9ZqlwwJwdOJ-Xsd3EEK-13" style="edgeStyle=orthogonalEdgeStyle;rounded=0;orthogonalLoop=1;jettySize=auto;html=1;entryX=0;entryY=0.5;entryDx=0;entryDy=0;" edge="1" parent="1" source="U9ZqlwwJwdOJ-Xsd3EEK-14" target="U9ZqlwwJwdOJ-Xsd3EEK-26">
          <mxGeometry relative="1" as="geometry" />
        </mxCell>
        <mxCell id="U9ZqlwwJwdOJ-Xsd3EEK-14" value="Solutions (drop down menu)" style="rounded=1;whiteSpace=wrap;html=1;" vertex="1" parent="1">
          <mxGeometry x="320" y="320" width="120" height="60" as="geometry" />
        </mxCell>
        <mxCell id="U9ZqlwwJwdOJ-Xsd3EEK-15" style="edgeStyle=orthogonalEdgeStyle;rounded=0;orthogonalLoop=1;jettySize=auto;html=1;entryX=0;entryY=0.5;entryDx=0;entryDy=0;" edge="1" parent="1" source="U9ZqlwwJwdOJ-Xsd3EEK-18" target="U9ZqlwwJwdOJ-Xsd3EEK-27">
          <mxGeometry relative="1" as="geometry" />
        </mxCell>
        <mxCell id="U9ZqlwwJwdOJ-Xsd3EEK-16" style="edgeStyle=orthogonalEdgeStyle;rounded=0;orthogonalLoop=1;jettySize=auto;html=1;entryX=0;entryY=0.5;entryDx=0;entryDy=0;" edge="1" parent="1" source="U9ZqlwwJwdOJ-Xsd3EEK-18" target="U9ZqlwwJwdOJ-Xsd3EEK-28">
          <mxGeometry relative="1" as="geometry" />
        </mxCell>
        <mxCell id="U9ZqlwwJwdOJ-Xsd3EEK-17" style="edgeStyle=orthogonalEdgeStyle;rounded=0;orthogonalLoop=1;jettySize=auto;html=1;entryX=0;entryY=0.5;entryDx=0;entryDy=0;" edge="1" parent="1" source="U9ZqlwwJwdOJ-Xsd3EEK-18" target="U9ZqlwwJwdOJ-Xsd3EEK-29">
          <mxGeometry relative="1" as="geometry" />
        </mxCell>
        <mxCell id="U9ZqlwwJwdOJ-Xsd3EEK-18" value="Resources (drop down menu)" style="rounded=1;whiteSpace=wrap;html=1;" vertex="1" parent="1">
          <mxGeometry x="470" y="320" width="120" height="60" as="geometry" />
        </mxCell>
        <mxCell id="U9ZqlwwJwdOJ-Xsd3EEK-19" value="About (HLINK to other page&lt;span style=&quot;background-color: transparent; color: light-dark(rgb(0, 0, 0), rgb(255, 255, 255));&quot;&gt;)&amp;nbsp;&lt;/span&gt;" style="rounded=1;whiteSpace=wrap;html=1;" vertex="1" parent="1">
          <mxGeometry x="680" y="310" width="120" height="60" as="geometry" />
        </mxCell>
        <mxCell id="U9ZqlwwJwdOJ-Xsd3EEK-20" style="edgeStyle=orthogonalEdgeStyle;rounded=0;orthogonalLoop=1;jettySize=auto;html=1;entryX=0.5;entryY=0;entryDx=0;entryDy=0;" edge="1" parent="1" source="U9ZqlwwJwdOJ-Xsd3EEK-21" target="U9ZqlwwJwdOJ-Xsd3EEK-31">
          <mxGeometry relative="1" as="geometry" />
        </mxCell>
        <mxCell id="U9ZqlwwJwdOJ-Xsd3EEK-21" value="Start your asssesment (Button)" style="rounded=1;whiteSpace=wrap;html=1;" vertex="1" parent="1">
          <mxGeometry x="1000" y="310" width="120" height="60" as="geometry" />
        </mxCell>
        <mxCell id="U9ZqlwwJwdOJ-Xsd3EEK-22" style="edgeStyle=orthogonalEdgeStyle;rounded=0;orthogonalLoop=1;jettySize=auto;html=1;entryX=0.5;entryY=0;entryDx=0;entryDy=0;" edge="1" parent="1" source="U9ZqlwwJwdOJ-Xsd3EEK-23" target="U9ZqlwwJwdOJ-Xsd3EEK-30">
          <mxGeometry relative="1" as="geometry" />
        </mxCell>
        <mxCell id="U9ZqlwwJwdOJ-Xsd3EEK-23" value="Contact Us (Button)" style="rounded=1;whiteSpace=wrap;html=1;" vertex="1" parent="1">
          <mxGeometry x="860" y="310" width="120" height="60" as="geometry" />
        </mxCell>
        <mxCell id="U9ZqlwwJwdOJ-Xsd3EEK-24" value="BrightForecast™ (HLINK to other page)" style="rounded=1;whiteSpace=wrap;html=1;" vertex="1" parent="1">
          <mxGeometry x="400" y="420" width="120" height="60" as="geometry" />
        </mxCell>
        <mxCell id="U9ZqlwwJwdOJ-Xsd3EEK-25" value="BrightRevenue™ (HLINK to other page)" style="rounded=1;whiteSpace=wrap;html=1;" vertex="1" parent="1">
          <mxGeometry x="400" y="490" width="120" height="60" as="geometry" />
        </mxCell>
        <mxCell id="U9ZqlwwJwdOJ-Xsd3EEK-26" value="BrightPrice™ (HLINK to other page)" style="rounded=1;whiteSpace=wrap;html=1;" vertex="1" parent="1">
          <mxGeometry x="400" y="555" width="120" height="60" as="geometry" />
        </mxCell>
        <mxCell id="U9ZqlwwJwdOJ-Xsd3EEK-27" value="AIM³ Framework (HLINK to other page)" style="rounded=1;whiteSpace=wrap;html=1;" vertex="1" parent="1">
          <mxGeometry x="550" y="420" width="120" height="60" as="geometry" />
        </mxCell>
        <mxCell id="U9ZqlwwJwdOJ-Xsd3EEK-28" value="ROI Calculator&lt;span style=&quot;background-color: transparent; color: light-dark(rgb(0, 0, 0), rgb(255, 255, 255));&quot;&gt;&amp;nbsp;(HLINK to other page)&lt;/span&gt;" style="rounded=1;whiteSpace=wrap;html=1;" vertex="1" parent="1">
          <mxGeometry x="550" y="490" width="120" height="60" as="geometry" />
        </mxCell>
        <mxCell id="U9ZqlwwJwdOJ-Xsd3EEK-29" value="Assestment&lt;span style=&quot;background-color: transparent; color: light-dark(rgb(0, 0, 0), rgb(255, 255, 255));&quot;&gt;&amp;nbsp;(HLINK to other page)&lt;/span&gt;" style="rounded=1;whiteSpace=wrap;html=1;" vertex="1" parent="1">
          <mxGeometry x="550" y="560" width="120" height="60" as="geometry" />
        </mxCell>
        <mxCell id="U9ZqlwwJwdOJ-Xsd3EEK-30" value="Button calls to other page, is a contact form" style="rounded=1;whiteSpace=wrap;html=1;" vertex="1" parent="1">
          <mxGeometry x="860" y="390" width="120" height="60" as="geometry" />
        </mxCell>
        <mxCell id="U9ZqlwwJwdOJ-Xsd3EEK-31" value="Button calls to other page" style="rounded=1;whiteSpace=wrap;html=1;" vertex="1" parent="1">
          <mxGeometry x="1000" y="390" width="120" height="60" as="geometry" />
        </mxCell>
        <mxCell id="-sBo_Sa4EBixbXjN8lGd-1" value="Homepage" style="rounded=1;whiteSpace=wrap;html=1;" vertex="1" parent="1">
          <mxGeometry x="20" y="90" width="120" height="60" as="geometry" />
        </mxCell>
        <mxCell id="-sBo_Sa4EBixbXjN8lGd-4" style="edgeStyle=orthogonalEdgeStyle;rounded=0;orthogonalLoop=1;jettySize=auto;html=1;entryX=0.5;entryY=0;entryDx=0;entryDy=0;" edge="1" parent="1" source="-sBo_Sa4EBixbXjN8lGd-3" target="U9ZqlwwJwdOJ-Xsd3EEK-8">
          <mxGeometry relative="1" as="geometry" />
        </mxCell>
        <mxCell id="-sBo_Sa4EBixbXjN8lGd-5" style="edgeStyle=orthogonalEdgeStyle;rounded=0;orthogonalLoop=1;jettySize=auto;html=1;entryX=0.5;entryY=0;entryDx=0;entryDy=0;" edge="1" parent="1" source="-sBo_Sa4EBixbXjN8lGd-3" target="-sBo_Sa4EBixbXjN8lGd-7">
          <mxGeometry relative="1" as="geometry">
            <mxPoint x="180" y="710" as="targetPoint" />
            <Array as="points">
              <mxPoint x="230" y="170" />
              <mxPoint x="-40" y="170" />
              <mxPoint x="-40" y="630" />
              <mxPoint x="180" y="630" />
            </Array>
          </mxGeometry>
        </mxCell>
        <mxCell id="-sBo_Sa4EBixbXjN8lGd-3" value="AIM³ Framework" style="rounded=1;whiteSpace=wrap;html=1;" vertex="1" parent="1">
          <mxGeometry x="170" y="90" width="120" height="60" as="geometry" />
        </mxCell>
        <mxCell id="-sBo_Sa4EBixbXjN8lGd-7" value="Cuerpo Empieza en la página 8" style="rounded=1;whiteSpace=wrap;html=1;" vertex="1" parent="1">
          <mxGeometry x="120" y="730" width="120" height="60" as="geometry" />
        </mxCell>
        <mxCell id="-sBo_Sa4EBixbXjN8lGd-8" value="Sin CTA final (el que dice opcional)" style="shape=process;whiteSpace=wrap;html=1;backgroundOutline=1;" vertex="1" parent="1">
          <mxGeometry x="280" y="660" width="120" height="60" as="geometry" />
        </mxCell>
      </root>
    </mxGraphModel>
  </diagram>
</mxfile>
